<?xml version="1.0" encoding="UTF-8" standalone="no"?>
<!-- Created with Inkscape (http://www.inkscape.org/) -->

<svg
   width="700"
   height="200"
   viewBox="0 0 185.208 52.916571"
   version="1.1"
   id="svg1"
   xml:space="preserve"
   inkscape:version="1.3.2 (091e20e, 2023-11-25, custom)"
   sodipodi:docname="logo.svg"
   inkscape:export-xdpi="10.643809"
   inkscape:export-ydpi="10.643809"
   xmlns:inkscape="http://www.inkscape.org/namespaces/inkscape"
   xmlns:sodipodi="http://sodipodi.sourceforge.net/DTD/sodipodi-0.dtd"
   xmlns:xlink="http://www.w3.org/1999/xlink"
   xmlns="http://www.w3.org/2000/svg"
   xmlns:svg="http://www.w3.org/2000/svg"><sodipodi:namedview
     id="namedview1"
     pagecolor="#ffffff"
     bordercolor="#000000"
     borderopacity="0.25"
     inkscape:showpageshadow="false"
     inkscape:pageopacity="0.0"
     inkscape:pagecheckerboard="true"
     inkscape:deskcolor="#d1d1d1"
     inkscape:document-units="px"
     showgrid="false"
     inkscape:zoom="0.62713214"
     inkscape:cx="399.43735"
     inkscape:cy="175.40163"
     inkscape:current-layer="g5"
     borderlayer="true"><inkscape:grid
       id="grid1"
       units="px"
       originx="0"
       originy="0"
       spacingx="0.26458333"
       spacingy="0.26458334"
       empcolor="#0099e5"
       empopacity="0.30196078"
       color="#0099e5"
       opacity="0.14901961"
       empspacing="5"
       dotted="false"
       gridanglex="30"
       gridanglez="30"
       visible="false" /></sodipodi:namedview><defs
     id="defs1"><linearGradient
       id="linearGradient9"
       inkscape:collect="always"><stop
         style="stop-color:#ff1493;stop-opacity:1;"
         offset="0"
         id="stop9" /><stop
         style="stop-color:#000000;stop-opacity:1;"
         offset="1"
         id="stop10" /></linearGradient><linearGradient
       inkscape:collect="always"
       xlink:href="#linearGradient9"
       id="linearGradient10"
       x1="16.03396"
       y1="159.62906"
       x2="16.204649"
       y2="134.97461"
       gradientUnits="userSpaceOnUse"
       gradientTransform="matrix(0.89095534,0,0,0.89095534,-8.088944,-98.302565)" /></defs><g
     inkscape:groupmode="layer"
     id="layer2"
     inkscape:label="Layer 2"
     style="display:inline;fill:#000000;fill-opacity:1;fill-rule:nonzero;stroke:none;stroke-opacity:1"><g
       id="g5"
       transform="translate(0,1.5874999)"><path
         d="m 18.678224,56.448917 h 1.9327 q 1.953371,0 1.953371,1.56752 0,0.816488 -0.582222,1.23679 -0.52021,0.37207 -1.429715,0.37207 h -0.923287 v 2.297881 h -0.950847 z m 0.950847,0.713135 v 1.75011 h 0.895726 q 1.078315,0 1.078315,-0.888835 0,-0.861275 -1.043864,-0.861275 z m 12.404417,-0.713135 h 1.967151 q 1.93959,0 1.93959,1.488282 0,0.547771 -0.316949,0.916396 -0.279053,0.327285 -0.768257,0.475424 l 1.264351,2.594159 H 35.09618 l -1.109321,-2.45291 -0.248048,0.0069 h -0.775146 v 2.44602 h -0.930177 z m 0.930177,0.713135 v 1.608861 h 0.954292 q 1.071425,0 1.071425,-0.819933 0,-0.788928 -1.030084,-0.788928 z m 16.083781,-0.713135 v 0.754477 h -2.663061 v 1.446941 h 2.011937 v 0.754476 h -2.011937 v 1.76389 h 2.718182 v 0.754477 h -3.669029 v -5.474261 z m 12.990083,1.271241 -0.923286,0.251492 q -0.213596,-0.895725 -0.974963,-0.895725 -0.461643,0 -0.706245,0.217041 -0.206706,0.186035 -0.206706,0.496094 0,0.385851 0.237712,0.585667 0.217041,0.179145 0.768257,0.330729 l 0.289388,0.08613 q 0.961183,0.261827 1.316028,0.685574 0.285943,0.34451 0.285943,0.930177 0,0.795817 -0.564996,1.226454 -0.516765,0.396187 -1.41249,0.396187 -0.86472,0 -1.402155,-0.399632 -0.485759,-0.361735 -0.664904,-1.019749 l 0.909506,-0.289388 q 0.113688,0.506429 0.444417,0.764812 0.285943,0.223931 0.692465,0.223931 1.04731,0 1.04731,-0.782037 0,-0.392741 -0.230822,-0.585667 -0.223931,-0.18948 -0.837159,-0.361735 l -0.282498,-0.08268 q -0.91295,-0.272163 -1.254015,-0.692465 -0.285943,-0.3514 -0.285943,-0.954292 0,-0.692465 0.537435,-1.109321 0.492649,-0.385851 1.291912,-0.385851 1.491727,0 1.925809,1.364258 z M 75.20331,56.448917 v 0.754477 h -2.66306 v 1.446941 h 2.011937 v 0.754476 H 72.54025 v 1.76389 h 2.718182 v 0.754477 h -3.669029 v -5.474261 z m 13.623982,0 v 5.474261 h -1.164443 l -1.326363,-2.821536 q -0.423747,-0.91295 -0.785482,-1.808676 h -0.09646 q 0.04823,0.909506 0.04823,1.977486 v 2.652726 h -0.875055 v -5.474261 h 1.43316 l 1.136883,2.425349 q 0.420302,0.930176 0.726915,1.877578 h 0.09646 q -0.0689,-1.116211 -0.0689,-2.005047 v -2.29788 z m 13.544738,0 v 0.768257 h -1.62953 v 4.706004 H 99.781321 V 57.217174 H 98.16557 v -0.768257 z m 12.95564,0 v 0.754477 h -2.66306 v 1.446941 h 2.01194 v 0.754476 h -2.01194 v 1.76389 h 2.71818 v 0.754477 h -3.66903 v -5.474261 z m 9.42441,0 h 1.83279 q 1.3367,0 2.0016,0.751032 0.60289,0.685574 0.60289,1.949925 0,1.440051 -0.84749,2.166966 -0.70625,0.606338 -1.88447,0.606338 h -1.70532 z m 0.94395,0.733806 v 4.006649 h 0.7407 q 0.88883,0 1.32981,-0.551216 0.41341,-0.513319 0.41341,-1.481392 0,-1.974041 -1.69499,-1.974041 z m 12.31485,4.726674 z m 11.13318,-5.46048 h 1.95337 q 1.0542,0 1.50551,0.406522 0.36518,0.327284 0.36518,0.954292 0,0.502984 -0.33418,0.830268 -0.28594,0.282498 -0.75447,0.361736 v 0.04823 q 0.64768,0.106798 0.97496,0.492649 0.2825,0.334174 0.2825,0.826823 0,0.782038 -0.56844,1.192004 -0.50643,0.361736 -1.37115,0.361736 h -2.05328 z m 0.93018,0.713135 v 1.536514 h 0.83371 q 0.58567,0 0.87505,-0.244602 0.24116,-0.203261 0.24116,-0.551216 0,-0.403076 -0.26527,-0.578776 -0.2446,-0.16192 -0.76826,-0.16192 z m 0,2.249649 v 1.798341 h 1.0163 q 0.57189,0 0.85094,-0.272162 0.23427,-0.230822 0.23427,-0.637344 0,-0.447862 -0.35829,-0.682129 -0.31695,-0.206706 -0.8475,-0.206706 z m 16.45585,-2.962784 -1.79145,3.210831 v 2.26343 h -0.96119 v -2.26343 l -1.76389,-3.210831 h 1.05765 l 1.08865,2.036053 q 0.0379,0.0689 0.16881,0.334174 0.0896,-0.18948 0.1757,-0.341064 l 1.0542,-2.029163 z"
         id="text14"
         style="fill:#ff1493;stroke-width:0.264583"
         aria-label="PRESENTED BY" /><path
         d="m 69.508558,65.363472 q 0.463021,0 0.747586,0.289388 0.250803,0.250803 0.250803,0.6463 0,0.270096 -0.144694,0.858518 -0.144694,0.588423 -0.32315,1.046621 -0.916396,2.33922 -3.014459,3.622174 -0.834402,0.511252 -1.200961,0.511252 -0.236333,0 -0.356912,-0.188102 -0.08682,-0.139871 -0.08682,-0.274919 0,-0.265272 0.332796,-0.453375 1.413179,-0.815109 2.310282,-2.107709 0.795817,-1.13826 1.099674,-2.483915 0.02412,-0.106109 0.02412,-0.163986 0,-0.115756 -0.135048,-0.115756 -0.106109,0 -0.265272,0.01447 -0.274919,0.02412 -2.488738,0.173633 -0.819932,0.05788 -1.799029,0.13987 -0.09646,0.0096 -0.139871,0.0096 -0.602892,0 -0.602892,-0.617361 0,-0.467845 0.448552,-0.554661 0.207395,-0.04341 4.321529,-0.289388 0.409966,-0.02412 0.636653,-0.04341 0.299035,-0.01929 0.385851,-0.01929 z m 1.856907,-1.837614 q 0.274919,0 0.530545,0.139871 0.270096,0.149517 0.424436,0.419612 0.149517,0.26045 0.149517,0.545015 0,0.424436 -0.294211,0.747586 -0.327973,0.361735 -0.81511,0.361735 -0.226687,0 -0.438905,-0.09164 -0.279742,-0.125401 -0.453375,-0.371381 -0.212218,-0.294211 -0.212218,-0.6463 0,-0.593246 0.501606,-0.921219 0.274919,-0.183279 0.607715,-0.183279 z m -0.0048,0.583599 q -0.139871,0 -0.274919,0.08199 -0.24598,0.154341 -0.24598,0.443729 0,0.192925 0.130225,0.342442 0.159164,0.178456 0.395497,0.178456 0.125402,0 0.236334,-0.05788 0.284565,-0.149517 0.284565,-0.463021 0,-0.24598 -0.188103,-0.405143 -0.149517,-0.120579 -0.337619,-0.120579 z m 4.890659,1.176845 v 4.919597 q 0,0.212218 0.09164,0.212218 0.16881,0 0.911573,-0.405143 1.668804,-0.921219 2.826357,-2.151118 0.207394,-0.217041 0.453374,-0.217041 0.163987,0 0.299035,0.110932 0.173632,0.139871 0.173632,0.371381 0,0.192926 -0.168809,0.419613 -0.901926,1.21543 -2.488738,2.26205 -1.027327,0.675239 -1.991954,1.022505 -0.24598,0.08682 -0.443729,0.08682 -0.405143,0 -0.713824,-0.376204 -0.192925,-0.241157 -0.192925,-0.636654 v -5.618952 q 0,-0.318327 0.270095,-0.467844 0.154341,-0.08682 0.352089,-0.08682 0.289388,0 0.467844,0.168809 0.154341,0.149517 0.154341,0.385851 z m 9.405112,1.147906 q 0.144694,0 0.279742,0.0627 0.381028,0.173633 0.381028,0.56913 0,0.352089 -0.443729,1.196137 -0.602891,1.143083 -1.495171,2.020894 -0.655947,0.641477 -0.974274,0.641477 -0.183279,0 -0.332796,-0.163987 -0.120578,-0.130225 -0.120578,-0.299034 0,-0.202572 0.202571,-0.424436 1.181668,-1.287777 1.86173,-3.130215 0.173633,-0.472667 0.641477,-0.472667 z m 3.221854,-0.197748 q 0.24598,0 0.554661,0.303857 0.747586,0.728293 1.466233,1.799029 0.790994,1.186491 0.790994,1.663982 0,0.352089 -0.303858,0.540191 -0.188102,0.120578 -0.376204,0.120578 -0.381028,0 -0.564307,-0.332796 -0.01929,-0.03376 -0.135048,-0.270096 -0.848871,-1.813498 -1.794206,-3.019282 -0.130224,-0.16881 -0.130224,-0.361735 0,-0.192925 0.149517,-0.318327 0.15434,-0.125401 0.342442,-0.125401 z m 10.26363,-0.872988 q 0.463021,0 0.747586,0.289388 0.250807,0.250803 0.250807,0.6463 0,0.270096 -0.144698,0.858518 -0.144694,0.588423 -0.32315,1.046621 -0.916396,2.33922 -3.014459,3.622174 -0.834403,0.511252 -1.200961,0.511252 -0.236333,0 -0.356912,-0.188102 -0.08682,-0.139871 -0.08682,-0.274919 0,-0.265272 0.332796,-0.453375 1.413179,-0.815109 2.310282,-2.107709 0.795817,-1.13826 1.099674,-2.483915 0.02412,-0.106109 0.02412,-0.163986 0,-0.115756 -0.135048,-0.115756 -0.106109,0 -0.265272,0.01447 -0.274919,0.02412 -2.488738,0.173633 -0.819933,0.05788 -1.799029,0.13987 -0.09646,0.0096 -0.139871,0.0096 -0.602892,0 -0.602892,-0.617361 0,-0.467845 0.448552,-0.554661 0.207395,-0.04341 4.321529,-0.289388 0.409966,-0.02412 0.636653,-0.04341 0.299035,-0.01929 0.385851,-0.01929 z m 0.72347,-1.157552 q 0.274923,0 0.868163,0.540191 0.50643,0.458198 0.50643,0.72347 0,0.188102 -0.16399,0.32315 -0.13022,0.106109 -0.29421,0.106109 -0.22186,0 -0.3762,-0.250803 -0.27492,-0.453375 -0.684887,-0.87781 -0.135047,-0.144694 -0.135047,-0.289388 0,-0.274919 0.279741,-0.274919 z m 0.906753,-0.689708 q 0.28456,0 0.82958,0.458197 0.50643,0.424436 0.50643,0.723471 0,0.207394 -0.15917,0.327973 -0.11575,0.08682 -0.26045,0.08682 -0.20739,0 -0.36173,-0.241157 -0.25563,-0.390673 -0.68971,-0.805463 -0.15434,-0.149517 -0.15434,-0.289388 0,-0.101286 0.0772,-0.178456 0.0772,-0.08199 0.21222,-0.08199 z m 6.97907,1.128613 v 7.012838 q 0,1.036974 -0.90192,1.036974 -0.40515,0 -1.20096,-0.308681 -0.48232,-0.183279 -0.74277,-0.347265 -0.27974,-0.178456 -0.27974,-0.409967 0,-0.139871 0.082,-0.24598 0.1061,-0.149517 0.33279,-0.149517 0.10611,0 0.28457,0.04823 0.59324,0.159163 0.85851,0.159163 0.26528,0 0.26528,-0.318327 v -6.47747 q 0,-0.294211 0.25562,-0.438905 0.17846,-0.106109 0.39068,-0.106109 0.2508,0 0.4389,0.130225 0.21704,0.144694 0.21704,0.414789 z m 1.44212,1.755621 q 0.2508,0 0.51125,0.299035 1.03698,1.186491 1.53376,2.276519 0.21222,0.458198 0.21222,0.762055 0,0.32315 -0.25563,0.520899 -0.19292,0.149517 -0.44855,0.149517 -0.35209,0 -0.54019,-0.260449 -0.0531,-0.07717 -0.15434,-0.385851 -0.40032,-1.244369 -1.22025,-2.618962 -0.0916,-0.15434 -0.0916,-0.313504 0,-0.236333 0.17845,-0.352089 0.1254,-0.07717 0.27492,-0.07717 z m -4.39387,-0.08682 q 0.17845,0 0.33279,0.08682 0.32797,0.183279 0.32797,0.545014 0,0.188103 -0.14469,0.5836 -0.61736,1.678451 -1.6881,2.787772 -0.24598,0.255626 -0.47749,0.255626 -0.16881,0 -0.29903,-0.115756 -0.15434,-0.13987 -0.15434,-0.347265 0,-0.159164 0.21222,-0.487137 0.84404,-1.336008 1.24437,-2.763656 0.14951,-0.545014 0.6463,-0.545014 z m 9.98389,0.578776 -0.0145,0.241157 q -0.0627,1.143083 -0.33762,2.329574 -0.37139,1.606104 -1.03698,2.594846 -0.24115,0.366558 -0.52572,0.366558 -0.13987,0 -0.26045,-0.08199 -0.18328,-0.130224 -0.18328,-0.347266 0,-0.144694 0.17846,-0.491959 0.57395,-1.099675 0.82958,-2.913174 0.15916,-1.109321 0.21704,-3.15433 -0.28939,-0.08199 -0.28939,-0.434082 0,-0.409966 0.3955,-0.438905 l 6.01445,-0.405144 q 0.0916,-0.0048 0.1254,-0.0048 0.77652,0 0.77652,0.593246 0,0.188102 -0.0723,0.40032 l -0.19775,0.602892 q 0.17845,0.110932 0.17845,0.356912 0,0.409966 -0.3762,0.434082 z m 0.0482,-0.848872 4.42763,-0.284565 0.10611,-0.516075 q 0.01,-0.03376 0.01,-0.0627 0,-0.125401 -0.11093,-0.115755 l -0.0338,0.0048 -4.36012,0.299034 -0.005,0.05788 q 0,0.07235 -0.01,0.217041 -0.0145,0.241157 -0.0241,0.40032 z m 4.43246,3.284555 q -0.71865,0.144694 -1.51447,0.250803 0.45338,0.06752 0.45338,0.429259 v 0.188102 l 1.75562,-0.09164 q 0.0145,0 0.0289,0 0.42443,0 0.42443,0.434082 0,0.443728 -0.41479,0.463021 l -1.7942,0.08682 v 0.559484 l 2.57555,-0.09164 q 0.14952,-0.0048 0.26045,0.0627 0.19293,0.120578 0.19293,0.390674 0,0.472667 -0.42444,0.487136 l -6.27007,0.197749 h -0.0241 q -0.16399,0.0048 -0.29421,-0.106109 -0.13505,-0.125401 -0.13505,-0.342443 0,-0.294211 0.21222,-0.414789 0.0868,-0.05306 0.20257,-0.05788 l 2.52732,-0.08682 v -0.545014 l -1.65916,0.08199 h -0.0241 q -0.15916,0.0096 -0.28939,-0.101286 -0.13022,-0.115755 -0.13022,-0.327973 0,-0.429259 0.41479,-0.453375 l 1.68809,-0.08682 v -0.24598 q 0,-0.231511 0.25563,-0.366558 -1.26366,0.183279 -1.67845,0.183279 -0.23634,0 -0.38103,-0.226688 -0.13505,-0.212217 -0.13505,-0.356911 0,-0.144695 0.21704,-0.361736 0.35692,-0.352088 0.62219,-0.655946 l -0.66077,0.04341 q -0.15434,0.0096 -0.26527,-0.0627 -0.18811,-0.125402 -0.18811,-0.376205 0,-0.443728 0.41479,-0.467844 l 4.93889,-0.327973 q 0.01,0 0.0386,0 0.20257,0 0.31833,0.135048 0.11093,0.130224 0.11093,0.332796 0,0.414789 -0.3955,0.443728 l -1.17202,0.07235 q 0.34726,0.120579 0.87781,0.598069 0.41479,0.371381 0.41479,0.641477 0,0.226687 -0.16881,0.376204 -0.16881,0.144694 -0.38585,0.144694 -0.24598,0 -0.41961,-0.270095 -0.0627,-0.09646 -0.12058,-0.178456 z m -0.5209,-0.655946 q -0.19775,-0.192926 -0.19775,-0.347266 0,-0.16881 0.17363,-0.284565 l -1.47105,0.09646 q -0.46302,0.463021 -0.83441,0.771701 1.17203,-0.07235 2.32958,-0.236333 z"
         id="text15"
         style="fill:#ff1493;stroke:#ff1493;stroke-width:0.264583"
         aria-label="プレハブ小屋" /></g><g
       id="g1"
       transform="translate(0,-3.7041663)"><path
         d="m 28.625491,26.1541 q 1.290868,0.806793 -0.645435,1.129511 v 5.002116 q 0,5.002116 -2.420379,7.422495 -2.25902,2.259021 -7.906571,3.872607 -0.968151,0 -0.322717,-0.645435 4.356682,-1.774944 6.454344,-3.872606 2.097662,-2.097662 2.097662,-6.93842 v -6.454343 z m -7.422496,-0.968151 q 1.452228,-2.097662 1.613586,-4.840758 0.322717,-0.806793 0.645435,0 0.161358,0.645434 0.161358,1.613586 h 15.00635 l 1.290868,-1.290869 3.711248,3.065813 q 0.645434,0.806793 -0.645434,0.806793 -1.290869,0 -2.743097,0 -1.290868,1.290869 -2.581737,2.259021 -0.645434,0.322717 -0.484076,-0.322717 l 1.774945,-3.549889 H 23.784733 q 0,2.904454 -0.806793,4.033964 -0.484076,0.806793 -1.613586,0.806793 -0.806793,0 -0.806793,-1.12951 0,-0.645434 0.645434,-1.452227 z m 13.554122,13.71548 q 0,0.645435 0.645435,0.645435 h 3.065813 q 1.613586,0 1.936303,-1.613586 l 1.12951,-5.324834 q 0.322717,-0.322717 0.484076,0 v 5.647551 q 0,0.806793 0.645434,1.290869 0.968152,0.806793 -0.161358,1.452227 -0.806793,0.484076 -2.420379,0.484076 h -5.486192 q -1.936303,0 -1.936303,-1.936303 V 25.831383 l 2.743096,0.484076 q 1.12951,0.484076 -0.645435,1.12951 z M 31.691304,17.602095 h 3.872606 l 2.097662,-2.097662 2.581737,1.936303 q 0.968152,0.806793 0,1.12951 H 23.139298 v -0.968151 h 6.454344 v -4.518041 h -8.06793 v -0.968151 h 8.06793 V 6.791069 l 2.743096,0.4840758 q 1.290869,0.806793 -0.645434,1.1295102 v 3.711248 h 6.131627 l 2.420378,-2.4203793 3.065814,2.2590203 q 0.968151,0.806793 0,1.12951 H 31.691304 Z m -15.974501,13.070046 0.968152,-1.290869 2.25902,1.613586 q 0.968152,0.806793 -0.645434,1.12951 v 8.713365 q -2.097662,1.936303 -2.097662,0.161358 v -1.290869 h -5.486192 v 3.227172 Q 8.6170249,44.871697 8.6170249,43.096753 V 29.381272 l 2.4203791,1.290869 z m -5.002116,0.968152 v 7.099778 h 5.486192 V 31.640293 Z M 7.6488733,25.347307 h 7.4224957 l 1.774944,-1.774944 2.259021,1.613586 q 0.968151,0.806793 0,1.12951 H 7.6488733 Z m 0,-5.324833 h 7.4224957 l 1.774944,-1.774945 2.259021,1.613586 q 0.968151,0.806793 0,1.12951 H 7.6488733 Z M 6.196646,15.181716 h 10.165591 l 2.097662,-2.097662 2.581738,1.936303 q 0.968151,0.806793 0,1.129511 H 6.196646 Z M 7.6488733,9.8568823 h 7.9065707 l 1.774945,-1.7749445 2.25902,1.6135859 q 0.968152,0.8067933 0,1.1295103 H 7.6488733 Z M 66.222043,24.379156 h 10.972385 l 1.774944,-1.774945 2.259021,1.613586 q 0.968151,0.806793 0,1.12951 h -15.00635 v 3.388531 h 14.038198 l 2.097662,-2.097662 2.581737,1.936303 q 0.968152,0.806793 0,1.129511 H 48.149881 V 28.735838 H 64.124382 V 25.347307 H 52.183846 V 24.379156 H 64.124382 V 20.667908 H 53.313356 v -0.968151 h 10.811026 v -3.711248 h -16.13586 v -0.968152 h 16.13586 v -3.38853 H 53.151997 V 10.663675 H 64.124382 V 6.9524276 l 1.774944,0.3227172 q 2.743096,0.4840758 0.322717,1.2908688 v 2.0976614 h 8.06793 l 0.968152,-1.1295099 2.097661,1.4522269 q 1.12951,0.806793 -0.645434,1.129511 v 2.904454 h 3.38853 l 2.097662,-2.097661 2.581738,1.936303 q 0.968151,0.806793 0,1.12951 h -8.06793 v 5.486192 Q 74.61269,23.411004 74.61269,21.63606 v -0.968152 h -8.390647 z m 8.390647,-8.390647 h -8.390647 v 3.711248 h 8.390647 z m 0,-4.356682 h -8.390647 v 3.38853 H 74.61269 Z M 57.185962,41.644526 v 1.613585 Q 55.0883,45.194415 55.0883,43.41947 V 31.156217 l 2.420379,1.290869 h 17.910804 l 0.968152,-1.129511 2.097661,1.452228 q 1.129511,0.806793 -0.645434,1.12951 v 8.874723 Q 75.7422,44.710339 75.7422,42.935394 V 41.644526 Z M 75.7422,37.610561 H 57.185962 v 3.065813 H 75.7422 Z m 0,-4.195324 H 57.185962 v 3.227172 H 75.7422 Z m 36.78976,-16.781294 q -0.64543,0 -1.12951,0.968152 -8.06793,17.26537 -21.78341,24.042431 -0.968152,0 -0.484076,-0.645435 14.199556,-8.874723 20.331186,-25.978734 0.16136,-0.806793 -0.32272,-1.452227 -0.48408,-0.645434 -1.45223,-0.968152 -0.96815,-0.484075 0,-0.806793 1.93631,-0.161358 3.71125,1.613586 2.09766,2.097662 2.09766,2.743097 0,0.484075 -0.96815,0.484075 z m 36.30568,8.874723 q -7.09978,-0.161359 -12.74733,0 -4.51804,0.161359 -9.68151,0.484076 -2.90446,0.161358 -3.22717,0.484076 -0.64544,0.645434 -1.12952,0.645434 -0.16135,0 -1.12951,-0.968152 -1.12951,-1.12951 -1.61358,-2.097661 -0.80679,-1.613586 -0.64544,-3.065814 0.32272,-0.645434 0.64544,-0.161358 0.80679,2.25902 1.77494,2.743096 0.96815,0.484076 2.58174,0.484076 4.84076,0 13.07005,-0.161359 8.22929,-0.161359 10.32695,-0.322717 1.77494,-0.161359 2.09766,-0.484076 0.48407,-0.484076 0.96815,-0.484076 1.45223,0 2.58174,1.12951 1.12951,1.129511 1.12951,1.290869 0.32272,0.968152 -0.96815,0.806793 -2.09767,-0.322717 -4.03397,-0.322717 z m 16.45859,-3.549889 q 1.9363,0.161359 5.16347,0.968152 3.87261,1.12951 6.13163,2.904454 2.42038,1.936303 2.42038,3.227172 0,1.452227 -1.12951,1.452227 -0.64544,0 -1.77495,-1.452227 -3.22717,-4.195323 -10.81102,-6.454344 0,15.167708 0,17.910804 0,1.774945 -0.8068,1.774945 -0.96815,0 -1.61358,-1.452227 -0.48408,-1.129511 0.16136,-3.227172 0.48407,-5.486193 0.32271,-24.687865 0,-1.613586 -0.48407,-2.420379 -0.48408,-0.6454347 -2.25902,-0.8067933 -0.64544,-0.3227172 0,-0.6454343 1.12951,-0.3227172 3.06581,0.1613586 1.29087,0.4840757 2.25902,1.12951 0.96815,0.645434 0.96815,1.290869 0,0.484076 -0.64543,0.645434 -0.64544,0.161359 -0.64544,0.806793 -0.48407,4.195324 -0.32271,8.874723 z"
         id="text1"
         style="fill:url(#linearGradient10);stroke-width:0.999999"
         aria-label="読書ノート" /><rect
         style="fill:#ff1493;fill-opacity:1;fill-rule:nonzero;stroke:none;stroke-width:0.264582;stroke-opacity:1"
         id="rect16"
         width="27.540213"
         height="9.260416"
         x="151.47147"
         y="44.26836" /><path
         style="fill:#ff1493;stroke-width:0.264583"
         d="m 54.159802,41.578526 1.460016,-6.971933 H 57.0513 l -1.45526,6.971933 z m 8.34159,0 h -1.336367 l -1.883278,-4.684416 -0.979684,4.684416 h -1.336367 l 1.45526,-6.971933 h 1.341122 l 1.888034,4.665393 0.974929,-4.665393 h 1.331611 z m 1.460016,0 1.45526,-6.971933 h 5.169502 l -0.242543,1.165159 h -3.733265 l -0.332903,1.583666 h 3.609616 l -0.242544,1.165159 h -3.609615 l -0.43753,1.892789 h 4.056657 l -0.247299,1.16516 z m 6.477334,0 1.460015,-6.971933 h 4.879402 l -0.247299,1.165159 h -3.443165 l -0.351925,1.674025 h 3.376584 l -0.242543,1.165159 h -3.376585 l -0.618247,2.96759 z m 5.949445,0 1.460016,-6.971933 h 4.879402 l -0.247299,1.165159 h -3.443165 l -0.351925,1.674025 H 82.0618 l -0.242544,1.165159 h -3.376584 l -0.618248,2.96759 z m 5.906644,0 1.460016,-6.971933 h 1.431482 l -1.455261,6.971933 z m 7.818458,-2.511038 1.445749,0.218765 q -0.423262,1.174671 -1.269786,1.797674 -0.846524,0.618248 -1.983149,0.618248 -1.279297,0 -2.002172,-0.770432 -0.718118,-0.770432 -0.718118,-2.235203 0,-1.188938 0.480331,-2.173379 0.485087,-0.989196 1.341122,-1.512329 0.856035,-0.523133 1.864255,-0.523133 1.131869,0 1.830964,0.608736 0.699096,0.603981 0.822746,1.650246 l -1.374413,0.133161 q -0.114138,-0.608736 -0.442285,-0.879814 -0.323391,-0.275833 -0.865547,-0.275833 -0.594469,0 -1.112846,0.361437 -0.513621,0.361437 -0.822745,1.131869 -0.309124,0.765676 -0.309124,1.531352 0,0.837012 0.399483,1.293565 0.404239,0.456552 1.003464,0.456552 0.556423,0 1.017731,-0.361437 0.466064,-0.361438 0.69434,-1.070045 z m 1.921323,2.511038 1.460016,-6.971933 h 1.431481 l -1.45526,6.971933 z m 2.767849,0 1.45526,-6.971933 h 5.169499 l -0.24254,1.165159 h -3.733265 l -0.332903,1.583666 h 3.609618 l -0.24255,1.165159 h -3.609611 l -0.43753,1.892789 h 4.056661 l -0.2473,1.16516 z m 12.070099,0 h -1.33637 l -1.88328,-4.684416 -0.97968,4.684416 h -1.33637 l 1.45526,-6.971933 h 1.34113 l 1.88803,4.665393 0.97493,-4.665393 h 1.33161 z m 4.49418,0 h -1.43623 l 1.21747,-5.806774 h -2.04497 l 0.24254,-1.165159 h 5.49289 l -0.24254,1.165159 h -2.01644 z m 11.19504,0 h -1.33636 l -1.88328,-4.684416 -0.97969,4.684416 h -1.33636 l 1.45526,-6.971933 h 1.34112 l 1.88803,4.665393 0.97493,-4.665393 h 1.33161 z m 1.91181,-2.734558 q 0,-0.618248 0.18548,-1.303076 0.24254,-0.91786 0.73714,-1.593177 0.49935,-0.675317 1.25552,-1.065288 0.75616,-0.394728 1.72158,-0.394728 1.29357,0 2.08778,0.803722 0.79896,0.803722 0.79896,2.130577 0,1.103335 -0.51837,2.135333 -0.51838,1.031998 -1.40771,1.588421 -0.88932,0.556423 -2.01168,0.556423 -0.97493,0 -1.63598,-0.442285 -0.66105,-0.442285 -0.93688,-1.093823 -0.27584,-0.656294 -0.27584,-1.322099 z m 1.41722,-0.02853 q 0,0.718118 0.43753,1.203205 0.43753,0.485087 1.15089,0.485087 0.5802,0 1.11285,-0.380461 0.5374,-0.385216 0.88457,-1.160403 0.35192,-0.779943 0.35192,-1.517085 0,-0.822745 -0.44228,-1.288809 -0.44229,-0.470819 -1.12712,-0.470819 -1.05102,0 -1.71207,0.979685 -0.65629,0.979685 -0.65629,2.1496 z m 8.74107,2.763092 h -1.43624 l 1.21748,-5.806774 h -2.04498 l 0.24255,-1.165159 h 5.49289 l -0.24254,1.165159 h -2.01644 z m 2.91528,0 1.45526,-6.971933 h 5.1695 l -0.24254,1.165159 h -3.73327 l -0.3329,1.583666 h 3.60962 l -0.24255,1.165159 h -3.60961 l -0.43753,1.892789 h 4.05665 l -0.2473,1.16516 z m 6.74841,-3.172087 h 2.64896 l -0.27584,1.317343 h -2.64895 z m 6.02554,3.172087 h -1.43623 l 1.21747,-5.806774 h -2.04498 l 0.24255,-1.165159 h 5.49289 l -0.24254,1.165159 h -2.01644 z m 6.75792,-1.540864 h -2.76309 l -0.83701,1.540864 h -1.47428 l 3.94252,-6.971933 h 1.59317 l 1.13187,6.971933 h -1.36014 z m -0.17596,-1.160404 -0.40424,-2.805893 -1.68353,2.805893 z m 2.62993,2.701268 1.45526,-6.971933 h 1.43624 l -0.61825,2.962833 3.2244,-2.962833 h 1.92132 l -3.12928,2.734557 2.29702,4.237376 H 164.498 l -1.72158,-3.319515 -1.35539,1.184182 -0.44704,2.135333 z m 6.9862,0 1.46002,-6.971933 h 1.43148 l -1.45526,6.971933 z m 8.34159,0 h -1.33637 l -1.88327,-4.684416 -0.97969,4.684416 h -1.33636 l 1.45526,-6.971933 h 1.34112 l 1.88803,4.665393 0.97493,-4.665393 h 1.33161 z m 5.34071,-3.723754 h 3.11978 l -0.62776,2.991368 q -0.55167,0.356681 -1.35539,0.60398 -0.79897,0.247299 -1.63123,0.247299 -1.29356,0 -1.98314,-0.584957 -0.94164,-0.798967 -0.94164,-2.316051 0,-1.017731 0.40424,-1.949859 0.48508,-1.122357 1.37916,-1.740605 0.89409,-0.618248 2.10205,-0.618248 1.20796,0 1.93559,0.561179 0.73238,0.561179 0.97017,1.635979 l -1.33637,0.152184 q -0.17596,-0.589714 -0.57069,-0.889326 -0.38997,-0.299612 -0.98444,-0.299612 -0.69434,0 -1.27454,0.361437 -0.5802,0.361437 -0.90835,1.117602 -0.32814,0.756164 -0.32814,1.650246 0,0.879814 0.39948,1.303076 0.39948,0.418506 1.16992,0.418506 0.4613,0 0.94639,-0.128406 0.48509,-0.133161 0.83701,-0.313879 l 0.21401,-1.036754 h -1.77865 z"
         id="text17"
         transform="scale(0.77905986,1.2835984)"
         aria-label="INEFFICIENT NOTE-TAKING" /><rect
         style="fill:#ff1493;fill-opacity:1;fill-rule:nonzero;stroke:none;stroke-width:0.264582;stroke-opacity:1"
         id="rect1"
         width="27.540213"
         height="9.260416"
         x="6.1966462"
         y="44.268356" /></g></g></svg>
