<?xml version="1.0" encoding="UTF-8" standalone="no"?>
<!-- Created with Inkscape (http://www.inkscape.org/) -->

<svg
   width="500"
   height="300"
   id="svg2"
   version="1.1"
   inkscape:version="1.2.2 (732a01da63, 2022-12-09)"
   sodipodi:docname="fhmc.svg"
   inkscape:export-xdpi="90"
   inkscape:export-ydpi="90"
   xmlns:inkscape="http://www.inkscape.org/namespaces/inkscape"
   xmlns:sodipodi="http://sodipodi.sourceforge.net/DTD/sodipodi-0.dtd"
   xmlns="http://www.w3.org/2000/svg"
   xmlns:svg="http://www.w3.org/2000/svg"
   xmlns:rdf="http://www.w3.org/1999/02/22-rdf-syntax-ns#"
   xmlns:cc="http://creativecommons.org/ns#"
   xmlns:dc="http://purl.org/dc/elements/1.1/">
  <defs
     id="defs4" />
  <sodipodi:namedview
     id="base"
     pagecolor="#ffffff"
     bordercolor="#666666"
     borderopacity="1.0"
     inkscape:pageopacity="0.0"
     inkscape:pageshadow="2"
     inkscape:zoom="1.6533333"
     inkscape:cx="224.39517"
     inkscape:cy="150"
     inkscape:document-units="px"
     inkscape:current-layer="layer1"
     showgrid="false"
     inkscape:window-width="1019"
     inkscape:window-height="719"
     inkscape:window-x="-4"
     inkscape:window-y="-4"
     inkscape:window-maximized="1"
     inkscape:showpageshadow="2"
     inkscape:pagecheckerboard="0"
     inkscape:deskcolor="#d1d1d1">
    <inkscape:grid
       type="xygrid"
       id="grid237" />
  </sodipodi:namedview>
  <metadata
     id="metadata7">
    <rdf:RDF>
      <cc:Work
         rdf:about="">
        <dc:format>image/svg+xml</dc:format>
        <dc:type
           rdf:resource="http://purl.org/dc/dcmitype/StillImage" />
        <dc:title />
      </cc:Work>
    </rdf:RDF>
  </metadata>
  <g
     inkscape:label="レイヤー 1"
     inkscape:groupmode="layer"
     id="layer1"
     transform="translate(0,-752.36218)">
    <g
       id="g2984"
       transform="matrix(1.1591836,0,0,1.1235229,-40.248702,-103.52199)">
      <path
         id="rect3805"
         transform="translate(0,752.36218)"
         d="m 217.65625,99.96875 c -3.57543,0.29925 -24.63303,11.77133 -35.40625,17.1875 l 0,61.28125 c 4.94987,0.29109 8.35995,1.19061 10.25,2.6875 1.8899,1.49708 2.77743,4.00038 2.6875,7.53125 l 0,29.8125 -34.6875,0 0,-29.8125 c -0.09,-3.53087 0.79748,-6.03418 2.6875,-7.53125 1.88993,-1.49689 5.33127,-2.39641 10.28125,-2.6875 l 0,-57.3125 c -16.05564,6.77389 -32.58487,15.11687 -48.53125,22.5625 l 0,34.75 c 4.73093,0.35409 7.95776,1.24886 9.71875,2.71875 1.76096,1.47007 2.59298,3.97813 2.5,7.5 l 0,69.6875 c 0.11998,3.432 -0.66379,5.86535 -2.34375,7.28125 -1.67999,1.416 -4.95507,2.3855 -9.875,2.9375 l 0,3.625 48.53125,0 0,-3.625 c -5.13898,-0.489 -8.62857,-1.432 -10.4375,-2.875 -1.80902,-1.4429 -2.64829,-3.90275 -2.53125,-7.34375 l 0,-33.125 34.6875,0 0,33.125 c 0.11693,3.441 -0.72235,5.90085 -2.53125,7.34375 -1.80905,1.443 -5.26738,2.386 -10.40625,2.875 l 0,3.625 48.9375,0 0,-3.625 c -5.06404,-0.552 -8.46687,-1.5215 -10.21875,-2.9375 -1.75207,-1.4159 -2.55759,-3.84925 -2.4375,-7.28125 l 0,-69.6875 c -0.0841,-3.53087 0.79617,-6.03418 2.65625,-7.53125 1.85987,-1.49689 5.18796,-2.39641 10,-2.6875 l 0,-75.71875 C 227.5719,102.13166 224.0157,101.82169 218,100 c -0.0848,-0.02568 -0.1998,-0.0433 -0.34375,-0.03125 z m 18.5,3.8125 0,74.65625 c 5.13292,0.33609 8.57677,1.20911 10.34375,2.625 1.76697,1.41607 2.59174,3.94588 2.46875,7.59375 l 0,68.40625 c 0.15599,4.188 -0.62778,7.0386 -2.34375,8.5625 -1.71599,1.524 -5.32133,2.4935 -10.78125,2.9375 l 0,3.625 33.71875,0 0,-3.625 c -5.77196,-0.306 -9.6908,-1.4395 -11.71875,-3.4375 -2.02799,-1.9979 -2.97578,-5.6106 -2.84375,-10.8125 l 0,-67.65625 36.28125,85.53125 3.90625,0 36.28125,-87.71875 0,73.3125 c 0.1409,3.915 -0.63087,6.58235 -2.34375,8.03125 -1.71307,1.449 -5.20991,2.363 -10.46875,2.75 l 0,3.625 47.8125,0 0,-3.625 c -5.44206,-0.543 -8.97264,-1.6355 -10.5625,-3.3125 -1.5901,-1.6769 -2.29912,-4.97135 -2.125,-9.90625 l 0,-63.65625 c -0.12911,-5.04285 0.68115,-8.46493 2.40625,-10.25 1.72485,-1.78489 5.15419,-2.78091 10.28125,-3 l 0,-18.59375 c -13.11098,-2.24047 -24.92761,-4.77302 -36.25,-8.40625 L 330.1875,174.84375 301.375,242.8125 272.5625,174.84375 272.75,126.375 c -0.3238,-0.16094 -0.52753,-0.26377 -0.875,-0.4375 C 257.78611,118.89306 270.48599,124.89159 259,118 c -1.71499,-1.02899 -14.32651,-10.94249 -16.15625,-11.75 -2.63642,-1.16352 -4.78722,-1.92803 -6.6875,-2.46875 z m 42.15625,25.28125 0,45.21875 46.625,0 0,-24.625 c -5.84168,-2.08694 -11.60405,-4.51146 -17.34375,-7.375 -8.80275,-2.85613 -13.81464,-5.14241 -19.5,-8.46875 -4.42073,-2.21037 -6.82879,-3.34024 -9.78125,-4.75 z m -160.5,17.90625 c -4.75338,2.14748 -9.41822,4.19237 -14,6.03125 -19.3537,6.35089 -46.394914,14.77776 -67.625,17.90625 l 0,7.53125 c 4.87493,0.21009 8.229513,1.06137 10.0625,2.53125 1.832961,1.47007 2.686733,4.02163 2.59375,7.6875 l 0,69.6875 c 0.137984,3.63 -0.645784,6.1381 -2.34375,7.5 -1.697991,1.362 -5.122577,2.25675 -10.3125,2.71875 l 0,3.625 51.8125,0 0,-3.625 c -6.455966,-0.183 -10.739071,-0.95475 -12.875,-2.34375 -2.136012,-1.3889 -3.105538,-4.02 -2.9375,-7.875 l 0,-33.53125 c 7.21786,0.012 12.455992,1.67608 15.75,5 3.293899,3.32399 5.3992,9.09264 6.28125,17.3125 l 3.59375,0 0,-48.6875 -3.59375,0 c -1.152044,8.07596 -3.353848,13.72635 -6.59375,16.90625 -3.24001,3.18001 -8.381639,4.69455 -15.4375,4.5625 l 0,-33.40625 c -0.07504,-2.61287 0.532727,-4.39992 1.84375,-5.375 1.310942,-0.9749 3.746754,-1.45716 7.34375,-1.40625 6.608863,-0.003 12.083248,0.63611 16.40625,1.875 4.32287,1.23907 7.59545,3.10812 9.8125,5.625 1.5419,1.69806 2.81043,3.76487 3.8125,6.21875 1.00191,2.45405 2.00268,5.90988 2.96875,10.34375 l 3.4375,0 0,-56.8125 z m 255.3125,13.96875 -0.40625,63.28125 c 0,0 5.03361,27.24685 14.3125,36.46875 9.27885,9.2219 21.4914,13.96075 36.65625,14.21875 5.08787,0.01 9.81949,-0.606 14.1875,-1.875 4.36786,-1.2689 8.50146,-3.25125 12.4375,-5.90625 2.20488,-1.488 4.35844,-3.17375 6.4375,-5.09375 2.07888,-1.92 4.7027,-4.65225 7.84375,-8.15625 L 460.25,250.28125 c -4.11604,4.365 -7.62987,7.652 -10.59375,9.875 -2.96404,2.223 -6.16662,3.9811 -9.5625,5.25 -2.11505,0.864 -4.29035,1.5055 -6.53125,1.9375 -2.24104,0.432 -4.36335,0.65625 -6.40625,0.65625 -4.845,-0.054 -9.30411,-1.21875 -13.375,-3.46875 -4.07099,-2.2499 -7.19407,-5.2646 -9.375,-9.0625 -2.08501,-3.789 -3.66455,-8.33729 -4.6875,-13.65625 -1.02303,-5.3189 -1.53429,-11.57705 -1.53125,-18.75 0.024,-14.94274 2.29328,-26.27502 6.78125,-34 4.4879,-7.72481 11.05481,-11.58591 19.71875,-11.625 3.37189,-0.006 6.65648,0.64286 9.8125,1.96875 3.15589,1.32607 6.25972,3.36387 9.34375,6.09375 2.99988,2.66105 5.58269,5.54538 7.71875,8.65625 2.13588,3.11104 4.38844,7.33139 6.8125,12.65625 l 3.625,0 0,-27.75 c -4.50077,-0.60515 -8.85102,-1.74944 -13.09375,-3.53125 -21.98386,-2.70835 -55.23,-10.67415 -72.65625,-14.09375 -1.06741,-0.16588 -2.07484,-0.33245 -3.125,-0.5 z"
         style="color:#000000;fill:#000000;fill-opacity:1;stroke:#000000;stroke-width:3;stroke-linecap:round;stroke-linejoin:round;stroke-miterlimit:4;stroke-opacity:1;stroke-dasharray:none;stroke-dashoffset:5;marker:none;visibility:visible;display:inline;overflow:visible;enable-background:accumulate"
         inkscape:connector-curvature="0" />
      <path
         sodipodi:nodetypes="sccccccccccsscccccccccssccccccccccccccc"
         inkscape:connector-curvature="0"
         id="path3816"
         transform="translate(0,752.36218)"
         d="m 217.65625,99.96875 c -3.57543,0.29925 -24.63303,11.77133 -35.40625,17.1875 l 0,8.125 c 4.18818,-1.81734 8.90768,-2.778 12.75,-5.25 4.08417,-5.00556 2.87904,2.42023 2.53125,4.9375 -2.30346,7.42444 8.41924,1.43491 10.23462,-1.62507 4.5375,-2.10893 4.60725,-6.76807 9.02563,-6.39572 3.53347,4.5515 10.34384,18.60879 14.23849,22.82595 -1.07641,-2.43268 -2.56815,-24.17858 -3.85815,-29.03444 -0.0276,-0.85909 1.87513,1.31584 4.01566,5.38553 l 0,-13.40625 C 227.5719,102.13166 224.0157,101.82169 218,100 c -0.0848,-0.02568 -0.1998,-0.0433 -0.34375,-0.03125 z m 18.5,3.8125 0,9.90625 c 2.82704,2.09895 7.66966,13.0515 11.6302,14.88574 6.10442,2.69572 0.45438,-8.99784 -1.99481,-12.88581 -1.42568,-6.08319 8.50455,7.05977 10.33382,9.23901 6.14801,2.3575 9.61621,0.31767 13.84329,5.41731 0.80016,1.15018 1.73877,2.07977 2.75,2.84375 l 0.0312,-6.8125 c -0.3238,-0.16094 -0.52753,-0.26377 -0.875,-0.4375 C 257.78611,118.89306 270.48599,124.89159 259,118 c -1.71499,-1.02899 -14.32651,-10.94249 -16.15625,-11.75 -2.63642,-1.16352 -4.78722,-1.92803 -6.6875,-2.46875 z m 0,15.375 0,1.65625 c 0.36151,-0.003 0.26592,-0.6768 0,-1.65625 z m -62.6875,1.96875 c -3.32525,1.40293 -19.8164,9.53698 -23.17289,11.0526 14.70015,-2.09335 1.95134,7.74379 0.80751,8.76601 17.40257,-11.73506 17.93319,-8.67618 22.36538,-10.93778 z m 104.84375,7.9375 0,6.65625 c 3.50607,0.84236 7.3544,0.78243 10.90625,0.71875 1.84453,0.58849 2.97431,0.46371 3.59375,-0.0625 -1.58078,-0.80214 -3.13019,-1.63308 -4.71875,-2.5625 -4.42073,-2.21037 -6.82879,-3.34024 -9.78125,-4.75 z"
         style="fill:#ffffff;stroke:#000000;stroke-width:3;stroke-linecap:butt;stroke-linejoin:miter;stroke-miterlimit:4;stroke-opacity:1;stroke-dasharray:none" />
    </g>
  </g>
</svg>
