<?xml version="1.0" encoding="UTF-8" standalone="no"?>
<!-- Created with Inkscape (http://www.inkscape.org/) -->

<svg
   width="400"
   height="580"
   id="svg2"
   version="1.1"
   inkscape:version="1.2.2 (732a01da63, 2022-12-09)"
   sodipodi:docname="grapevine.svg"
   xmlns:inkscape="http://www.inkscape.org/namespaces/inkscape"
   xmlns:sodipodi="http://sodipodi.sourceforge.net/DTD/sodipodi-0.dtd"
   xmlns:xlink="http://www.w3.org/1999/xlink"
   xmlns="http://www.w3.org/2000/svg"
   xmlns:svg="http://www.w3.org/2000/svg"
   xmlns:rdf="http://www.w3.org/1999/02/22-rdf-syntax-ns#"
   xmlns:cc="http://creativecommons.org/ns#"
   xmlns:dc="http://purl.org/dc/elements/1.1/">
  <defs
     id="defs4">
    <clipPath
       clipPathUnits="userSpaceOnUse"
       id="clipPath3249">
      <path
         sodipodi:type="arc"
         style="color:#000000;fill:#ffffff;fill-opacity:1;fill-rule:nonzero;stroke:#000000;stroke-width:1;stroke-linecap:round;stroke-linejoin:round;stroke-miterlimit:4;stroke-opacity:1;stroke-dasharray:none;stroke-dashoffset:5;marker:none;visibility:visible;display:inline;overflow:visible;enable-background:accumulate"
         id="path3251"
         sodipodi:cx="199.375"
         sodipodi:cy="288.83066"
         sodipodi:rx="133.89113"
         sodipodi:ry="222.17741"
         d="m 333.26613,288.83066 a 133.89113,222.17741 0 1 1 -267.782259,0 133.89113,222.17741 0 1 1 267.782259,0 z"
         transform="translate(2.3889,475.28152)" />
    </clipPath>
  </defs>
  <sodipodi:namedview
     id="base"
     pagecolor="#ffffff"
     bordercolor="#666666"
     borderopacity="1.0"
     inkscape:pageopacity="0.0"
     inkscape:pageshadow="2"
     inkscape:zoom="0.85517241"
     inkscape:cx="161.37097"
     inkscape:cy="292.33871"
     inkscape:document-units="px"
     inkscape:current-layer="layer1"
     showgrid="true"
     inkscape:window-width="1019"
     inkscape:window-height="719"
     inkscape:window-x="-4"
     inkscape:window-y="-4"
     inkscape:window-maximized="1"
     inkscape:snap-grids="false"
     inkscape:snap-global="true"
     inkscape:showpageshadow="2"
     inkscape:pagecheckerboard="0"
     inkscape:deskcolor="#d1d1d1">
    <inkscape:grid
       type="xygrid"
       id="grid2985"
       empspacing="10"
       visible="true"
       enabled="true"
       snapvisiblegridlinesonly="true"
       spacingx="10"
       spacingy="10"
       originx="0"
       originy="0" />
  </sodipodi:namedview>
  <metadata
     id="metadata7">
    <rdf:RDF>
      <cc:Work
         rdf:about="">
        <dc:format>image/svg+xml</dc:format>
        <dc:type
           rdf:resource="http://purl.org/dc/dcmitype/StillImage" />
        <dc:title />
      </cc:Work>
    </rdf:RDF>
  </metadata>
  <g
     inkscape:label="レイヤー 1"
     inkscape:groupmode="layer"
     id="layer1"
     transform="translate(0,-472.36218)">
    <g
       id="g3201"
       clip-path="url(#clipPath3249)"
       transform="translate(-1.7639,-1.749998)">
      <g
         inkscape:tile-y0="49.5"
         inkscape:tile-x0="49.5"
         inkscape:tile-h="161"
         inkscape:tile-w="101"
         inkscape:tile-cy="130"
         inkscape:tile-cx="100"
         id="g2989">
        <path
           sodipodi:nodetypes="cc"
           transform="translate(0,472.36218)"
           inkscape:connector-curvature="0"
           id="path3010"
           d="m 100,50 c -50,80 50,80 0,160"
           style="fill:none;stroke:#000000;stroke-width:1px;stroke-linecap:butt;stroke-linejoin:miter;stroke-opacity:1" />
        <path
           sodipodi:nodetypes="cc"
           transform="translate(0,472.36218)"
           inkscape:connector-curvature="0"
           id="path3012"
           d="M 100,210 C 130,160 80,130 60,160"
           style="fill:none;stroke:#000000;stroke-width:1px;stroke-linecap:butt;stroke-linejoin:miter;stroke-opacity:1" />
        <path
           sodipodi:nodetypes="cc"
           transform="translate(0,472.36218)"
           inkscape:connector-curvature="0"
           id="path3014"
           d="m 100,210 c 30,-50 10,-80 30,-110"
           style="fill:none;stroke:#000000;stroke-width:1px;stroke-linecap:butt;stroke-linejoin:miter;stroke-opacity:1" />
        <path
           transform="translate(0,472.36218)"
           d="m 72,179.25 c 0,4.55635 -2.910149,8.25 -6.5,8.25 -3.589851,0 -6.5,-3.69365 -6.5,-8.25 0,-4.55635 2.910149,-8.25 6.5,-8.25 3.589851,0 6.5,3.69365 6.5,8.25 z"
           sodipodi:ry="8.25"
           sodipodi:rx="6.5"
           sodipodi:cy="179.25"
           sodipodi:cx="65.5"
           id="path3032"
           style="color:#000000;fill:#8a2be2;fill-opacity:1;fill-rule:nonzero;stroke:#000000;stroke-width:1;stroke-linecap:round;stroke-linejoin:round;stroke-miterlimit:4;stroke-opacity:1;stroke-dasharray:none;stroke-dashoffset:5;marker:none;visibility:visible;display:inline;overflow:visible;enable-background:accumulate"
           sodipodi:type="arc" />
        <path
           sodipodi:type="arc"
           style="color:#000000;fill:#8a2be2;fill-opacity:1;fill-rule:nonzero;stroke:#000000;stroke-width:1;stroke-linecap:round;stroke-linejoin:round;stroke-miterlimit:4;stroke-opacity:1;stroke-dasharray:none;stroke-dashoffset:5;marker:none;visibility:visible;display:inline;overflow:visible;enable-background:accumulate"
           id="path3034"
           sodipodi:cx="65.5"
           sodipodi:cy="179.25"
           sodipodi:rx="6.5"
           sodipodi:ry="8.25"
           d="m 72,179.25 c 0,4.55635 -2.910149,8.25 -6.5,8.25 -3.589851,0 -6.5,-3.69365 -6.5,-8.25 0,-4.55635 2.910149,-8.25 6.5,-8.25 3.589851,0 6.5,3.69365 6.5,8.25 z"
           transform="translate(7.5,466.36218)" />
        <path
           transform="translate(-0.5,460.36218)"
           d="m 72,179.25 c 0,4.55635 -2.910149,8.25 -6.5,8.25 -3.589851,0 -6.5,-3.69365 -6.5,-8.25 0,-4.55635 2.910149,-8.25 6.5,-8.25 3.589851,0 6.5,3.69365 6.5,8.25 z"
           sodipodi:ry="8.25"
           sodipodi:rx="6.5"
           sodipodi:cy="179.25"
           sodipodi:cx="65.5"
           id="path3036"
           style="color:#000000;fill:#8a2be2;fill-opacity:1;fill-rule:nonzero;stroke:#000000;stroke-width:1;stroke-linecap:round;stroke-linejoin:round;stroke-miterlimit:4;stroke-opacity:1;stroke-dasharray:none;stroke-dashoffset:5;marker:none;visibility:visible;display:inline;overflow:visible;enable-background:accumulate"
           sodipodi:type="arc" />
        <path
           sodipodi:type="arc"
           style="color:#000000;fill:#8a2be2;fill-opacity:1;fill-rule:nonzero;stroke:#000000;stroke-width:1;stroke-linecap:round;stroke-linejoin:round;stroke-miterlimit:4;stroke-opacity:1;stroke-dasharray:none;stroke-dashoffset:5;marker:none;visibility:visible;display:inline;overflow:visible;enable-background:accumulate"
           id="path3038"
           sodipodi:cx="65.5"
           sodipodi:cy="179.25"
           sodipodi:rx="6.5"
           sodipodi:ry="8.25"
           d="m 72,179.25 c 0,4.55635 -2.910149,8.25 -6.5,8.25 -3.589851,0 -6.5,-3.69365 -6.5,-8.25 0,-4.55635 2.910149,-8.25 6.5,-8.25 3.589851,0 6.5,3.69365 6.5,8.25 z"
           transform="translate(-6.5,454.36218)" />
        <path
           transform="translate(-10.5,460.36218)"
           d="m 72,179.25 c 0,4.55635 -2.910149,8.25 -6.5,8.25 -3.589851,0 -6.5,-3.69365 -6.5,-8.25 0,-4.55635 2.910149,-8.25 6.5,-8.25 3.589851,0 6.5,3.69365 6.5,8.25 z"
           sodipodi:ry="8.25"
           sodipodi:rx="6.5"
           sodipodi:cy="179.25"
           sodipodi:cx="65.5"
           id="path3040"
           style="color:#000000;fill:#8a2be2;fill-opacity:1;fill-rule:nonzero;stroke:#000000;stroke-width:1;stroke-linecap:round;stroke-linejoin:round;stroke-miterlimit:4;stroke-opacity:1;stroke-dasharray:none;stroke-dashoffset:5;marker:none;visibility:visible;display:inline;overflow:visible;enable-background:accumulate"
           sodipodi:type="arc" />
        <path
           sodipodi:type="arc"
           style="color:#000000;fill:#8a2be2;fill-opacity:1;fill-rule:nonzero;stroke:#000000;stroke-width:1;stroke-linecap:round;stroke-linejoin:round;stroke-miterlimit:4;stroke-opacity:1;stroke-dasharray:none;stroke-dashoffset:5;marker:none;visibility:visible;display:inline;overflow:visible;enable-background:accumulate"
           id="path3042"
           sodipodi:cx="65.5"
           sodipodi:cy="179.25"
           sodipodi:rx="6.5"
           sodipodi:ry="8.25"
           d="m 72,179.25 c 0,4.55635 -2.910149,8.25 -6.5,8.25 -3.589851,0 -6.5,-3.69365 -6.5,-8.25 0,-4.55635 2.910149,-8.25 6.5,-8.25 3.589851,0 6.5,3.69365 6.5,8.25 z"
           transform="translate(-14.5,466.36218)" />
        <path
           transform="translate(-10.5,472.36218)"
           d="m 72,179.25 c 0,4.55635 -2.910149,8.25 -6.5,8.25 -3.589851,0 -6.5,-3.69365 -6.5,-8.25 0,-4.55635 2.910149,-8.25 6.5,-8.25 3.589851,0 6.5,3.69365 6.5,8.25 z"
           sodipodi:ry="8.25"
           sodipodi:rx="6.5"
           sodipodi:cy="179.25"
           sodipodi:cx="65.5"
           id="path3044"
           style="color:#000000;fill:#8a2be2;fill-opacity:1;fill-rule:nonzero;stroke:#000000;stroke-width:1;stroke-linecap:round;stroke-linejoin:round;stroke-miterlimit:4;stroke-opacity:1;stroke-dasharray:none;stroke-dashoffset:5;marker:none;visibility:visible;display:inline;overflow:visible;enable-background:accumulate"
           sodipodi:type="arc" />
        <path
           sodipodi:type="arc"
           style="color:#000000;fill:#8a2be2;fill-opacity:1;fill-rule:nonzero;stroke:#000000;stroke-width:1;stroke-linecap:round;stroke-linejoin:round;stroke-miterlimit:4;stroke-opacity:1;stroke-dasharray:none;stroke-dashoffset:5;marker:none;visibility:visible;display:inline;overflow:visible;enable-background:accumulate"
           id="path3046"
           sodipodi:cx="65.5"
           sodipodi:cy="179.25"
           sodipodi:rx="6.5"
           sodipodi:ry="8.25"
           d="m 72,179.25 c 0,4.55635 -2.910149,8.25 -6.5,8.25 -3.589851,0 -6.5,-3.69365 -6.5,-8.25 0,-4.55635 2.910149,-8.25 6.5,-8.25 3.589851,0 6.5,3.69365 6.5,8.25 z"
           transform="translate(-6.5,478.36218)" />
        <path
           transform="translate(-0.5,484.36218)"
           d="m 72,179.25 c 0,4.55635 -2.910149,8.25 -6.5,8.25 -3.589851,0 -6.5,-3.69365 -6.5,-8.25 0,-4.55635 2.910149,-8.25 6.5,-8.25 3.589851,0 6.5,3.69365 6.5,8.25 z"
           sodipodi:ry="8.25"
           sodipodi:rx="6.5"
           sodipodi:cy="179.25"
           sodipodi:cx="65.5"
           id="path3048"
           style="color:#000000;fill:#8a2be2;fill-opacity:1;fill-rule:nonzero;stroke:#000000;stroke-width:1;stroke-linecap:round;stroke-linejoin:round;stroke-miterlimit:4;stroke-opacity:1;stroke-dasharray:none;stroke-dashoffset:5;marker:none;visibility:visible;display:inline;overflow:visible;enable-background:accumulate"
           sodipodi:type="arc" />
        <path
           sodipodi:type="arc"
           style="color:#000000;fill:#8a2be2;fill-opacity:1;fill-rule:nonzero;stroke:#000000;stroke-width:1;stroke-linecap:round;stroke-linejoin:round;stroke-miterlimit:4;stroke-opacity:1;stroke-dasharray:none;stroke-dashoffset:5;marker:none;visibility:visible;display:inline;overflow:visible;enable-background:accumulate"
           id="path3050"
           sodipodi:cx="65.5"
           sodipodi:cy="179.25"
           sodipodi:rx="6.5"
           sodipodi:ry="8.25"
           d="m 72,179.25 c 0,4.55635 -2.910149,8.25 -6.5,8.25 -3.589851,0 -6.5,-3.69365 -6.5,-8.25 0,-4.55635 2.910149,-8.25 6.5,-8.25 3.589851,0 6.5,3.69365 6.5,8.25 z"
           transform="translate(1.5,452.36218)" />
        <path
           transform="translate(9.5,448.36218)"
           d="m 72,179.25 c 0,4.55635 -2.910149,8.25 -6.5,8.25 -3.589851,0 -6.5,-3.69365 -6.5,-8.25 0,-4.55635 2.910149,-8.25 6.5,-8.25 3.589851,0 6.5,3.69365 6.5,8.25 z"
           sodipodi:ry="8.25"
           sodipodi:rx="6.5"
           sodipodi:cy="179.25"
           sodipodi:cx="65.5"
           id="path3052"
           style="color:#000000;fill:#8a2be2;fill-opacity:1;fill-rule:nonzero;stroke:#000000;stroke-width:1;stroke-linecap:round;stroke-linejoin:round;stroke-miterlimit:4;stroke-opacity:1;stroke-dasharray:none;stroke-dashoffset:5;marker:none;visibility:visible;display:inline;overflow:visible;enable-background:accumulate"
           sodipodi:type="arc" />
        <path
           sodipodi:type="arc"
           style="color:#000000;fill:#8a2be2;fill-opacity:1;fill-rule:nonzero;stroke:#000000;stroke-width:1;stroke-linecap:round;stroke-linejoin:round;stroke-miterlimit:4;stroke-opacity:1;stroke-dasharray:none;stroke-dashoffset:5;marker:none;visibility:visible;display:inline;overflow:visible;enable-background:accumulate"
           id="path3054"
           sodipodi:cx="65.5"
           sodipodi:cy="179.25"
           sodipodi:rx="6.5"
           sodipodi:ry="8.25"
           d="m 72,179.25 c 0,4.55635 -2.910149,8.25 -6.5,8.25 -3.589851,0 -6.5,-3.69365 -6.5,-8.25 0,-4.55635 2.910149,-8.25 6.5,-8.25 3.589851,0 6.5,3.69365 6.5,8.25 z"
           transform="translate(1.5,450.36218)" />
        <path
           transform="translate(15.5,454.36218)"
           d="m 72,179.25 c 0,4.55635 -2.910149,8.25 -6.5,8.25 -3.589851,0 -6.5,-3.69365 -6.5,-8.25 0,-4.55635 2.910149,-8.25 6.5,-8.25 3.589851,0 6.5,3.69365 6.5,8.25 z"
           sodipodi:ry="8.25"
           sodipodi:rx="6.5"
           sodipodi:cy="179.25"
           sodipodi:cx="65.5"
           id="path3056"
           style="color:#000000;fill:#8a2be2;fill-opacity:1;fill-rule:nonzero;stroke:#000000;stroke-width:1;stroke-linecap:round;stroke-linejoin:round;stroke-miterlimit:4;stroke-opacity:1;stroke-dasharray:none;stroke-dashoffset:5;marker:none;visibility:visible;display:inline;overflow:visible;enable-background:accumulate"
           sodipodi:type="arc" />
        <path
           sodipodi:type="arc"
           style="color:#000000;fill:#8a2be2;fill-opacity:1;fill-rule:nonzero;stroke:#000000;stroke-width:1;stroke-linecap:round;stroke-linejoin:round;stroke-miterlimit:4;stroke-opacity:1;stroke-dasharray:none;stroke-dashoffset:5;marker:none;visibility:visible;display:inline;overflow:visible;enable-background:accumulate"
           id="path3058"
           sodipodi:cx="65.5"
           sodipodi:cy="179.25"
           sodipodi:rx="6.5"
           sodipodi:ry="8.25"
           d="m 72,179.25 c 0,4.55635 -2.910149,8.25 -6.5,8.25 -3.589851,0 -6.5,-3.69365 -6.5,-8.25 0,-4.55635 2.910149,-8.25 6.5,-8.25 3.589851,0 6.5,3.69365 6.5,8.25 z"
           transform="translate(19.5,462.36218)" />
        <path
           transform="translate(15.5,468.36218)"
           d="m 72,179.25 c 0,4.55635 -2.910149,8.25 -6.5,8.25 -3.589851,0 -6.5,-3.69365 -6.5,-8.25 0,-4.55635 2.910149,-8.25 6.5,-8.25 3.589851,0 6.5,3.69365 6.5,8.25 z"
           sodipodi:ry="8.25"
           sodipodi:rx="6.5"
           sodipodi:cy="179.25"
           sodipodi:cx="65.5"
           id="path3060"
           style="color:#000000;fill:#8a2be2;fill-opacity:1;fill-rule:nonzero;stroke:#000000;stroke-width:1;stroke-linecap:round;stroke-linejoin:round;stroke-miterlimit:4;stroke-opacity:1;stroke-dasharray:none;stroke-dashoffset:5;marker:none;visibility:visible;display:inline;overflow:visible;enable-background:accumulate"
           sodipodi:type="arc" />
        <path
           sodipodi:type="arc"
           style="color:#000000;fill:#8a2be2;fill-opacity:1;fill-rule:nonzero;stroke:#000000;stroke-width:1;stroke-linecap:round;stroke-linejoin:round;stroke-miterlimit:4;stroke-opacity:1;stroke-dasharray:none;stroke-dashoffset:5;marker:none;visibility:visible;display:inline;overflow:visible;enable-background:accumulate"
           id="path3062"
           sodipodi:cx="65.5"
           sodipodi:cy="179.25"
           sodipodi:rx="6.5"
           sodipodi:ry="8.25"
           d="m 72,179.25 c 0,4.55635 -2.910149,8.25 -6.5,8.25 -3.589851,0 -6.5,-3.69365 -6.5,-8.25 0,-4.55635 2.910149,-8.25 6.5,-8.25 3.589851,0 6.5,3.69365 6.5,8.25 z"
           transform="translate(11.5,474.36218)" />
        <path
           transform="translate(7.5,480.36218)"
           d="m 72,179.25 c 0,4.55635 -2.910149,8.25 -6.5,8.25 -3.589851,0 -6.5,-3.69365 -6.5,-8.25 0,-4.55635 2.910149,-8.25 6.5,-8.25 3.589851,0 6.5,3.69365 6.5,8.25 z"
           sodipodi:ry="8.25"
           sodipodi:rx="6.5"
           sodipodi:cy="179.25"
           sodipodi:cx="65.5"
           id="path3064"
           style="color:#000000;fill:#8a2be2;fill-opacity:1;fill-rule:nonzero;stroke:#000000;stroke-width:1;stroke-linecap:round;stroke-linejoin:round;stroke-miterlimit:4;stroke-opacity:1;stroke-dasharray:none;stroke-dashoffset:5;marker:none;visibility:visible;display:inline;overflow:visible;enable-background:accumulate"
           sodipodi:type="arc" />
        <path
           sodipodi:type="arc"
           style="color:#000000;fill:#8a2be2;fill-opacity:1;fill-rule:nonzero;stroke:#000000;stroke-width:1;stroke-linecap:round;stroke-linejoin:round;stroke-miterlimit:4;stroke-opacity:1;stroke-dasharray:none;stroke-dashoffset:5;marker:none;visibility:visible;display:inline;overflow:visible;enable-background:accumulate"
           id="path3066"
           sodipodi:cx="65.5"
           sodipodi:cy="179.25"
           sodipodi:rx="6.5"
           sodipodi:ry="8.25"
           d="m 72,179.25 c 0,4.55635 -2.910149,8.25 -6.5,8.25 -3.589851,0 -6.5,-3.69365 -6.5,-8.25 0,-4.55635 2.910149,-8.25 6.5,-8.25 3.589851,0 6.5,3.69365 6.5,8.25 z"
           transform="translate(7.5,488.36218)" />
        <path
           transform="translate(9.5,460.36218)"
           d="m 72,179.25 c 0,4.55635 -2.910149,8.25 -6.5,8.25 -3.589851,0 -6.5,-3.69365 -6.5,-8.25 0,-4.55635 2.910149,-8.25 6.5,-8.25 3.589851,0 6.5,3.69365 6.5,8.25 z"
           sodipodi:ry="8.25"
           sodipodi:rx="6.5"
           sodipodi:cy="179.25"
           sodipodi:cx="65.5"
           id="path3068"
           style="color:#000000;fill:#8a2be2;fill-opacity:1;fill-rule:nonzero;stroke:#000000;stroke-width:1;stroke-linecap:round;stroke-linejoin:round;stroke-miterlimit:4;stroke-opacity:1;stroke-dasharray:none;stroke-dashoffset:5;marker:none;visibility:visible;display:inline;overflow:visible;enable-background:accumulate"
           sodipodi:type="arc" />
        <path
           sodipodi:type="arc"
           style="color:#000000;fill:#8a2be2;fill-opacity:1;fill-rule:nonzero;stroke:#000000;stroke-width:1;stroke-linecap:round;stroke-linejoin:round;stroke-miterlimit:4;stroke-opacity:1;stroke-dasharray:none;stroke-dashoffset:5;marker:none;visibility:visible;display:inline;overflow:visible;enable-background:accumulate"
           id="path3070"
           sodipodi:cx="65.5"
           sodipodi:cy="179.25"
           sodipodi:rx="6.5"
           sodipodi:ry="8.25"
           d="m 72,179.25 c 0,4.55635 -2.910149,8.25 -6.5,8.25 -3.589851,0 -6.5,-3.69365 -6.5,-8.25 0,-4.55635 2.910149,-8.25 6.5,-8.25 3.589851,0 6.5,3.69365 6.5,8.25 z"
           transform="translate(-12.5,482.36218)" />
        <path
           transform="translate(-6.5,488.36218)"
           d="m 72,179.25 c 0,4.55635 -2.910149,8.25 -6.5,8.25 -3.589851,0 -6.5,-3.69365 -6.5,-8.25 0,-4.55635 2.910149,-8.25 6.5,-8.25 3.589851,0 6.5,3.69365 6.5,8.25 z"
           sodipodi:ry="8.25"
           sodipodi:rx="6.5"
           sodipodi:cy="179.25"
           sodipodi:cx="65.5"
           id="path3072"
           style="color:#000000;fill:#8a2be2;fill-opacity:1;fill-rule:nonzero;stroke:#000000;stroke-width:1;stroke-linecap:round;stroke-linejoin:round;stroke-miterlimit:4;stroke-opacity:1;stroke-dasharray:none;stroke-dashoffset:5;marker:none;visibility:visible;display:inline;overflow:visible;enable-background:accumulate"
           sodipodi:type="arc" />
        <path
           sodipodi:type="arc"
           style="color:#000000;fill:#8a2be2;fill-opacity:1;fill-rule:nonzero;stroke:#000000;stroke-width:1;stroke-linecap:round;stroke-linejoin:round;stroke-miterlimit:4;stroke-opacity:1;stroke-dasharray:none;stroke-dashoffset:5;marker:none;visibility:visible;display:inline;overflow:visible;enable-background:accumulate"
           id="path3074"
           sodipodi:cx="65.5"
           sodipodi:cy="179.25"
           sodipodi:rx="6.5"
           sodipodi:ry="8.25"
           d="m 72,179.25 c 0,4.55635 -2.910149,8.25 -6.5,8.25 -3.589851,0 -6.5,-3.69365 -6.5,-8.25 0,-4.55635 2.910149,-8.25 6.5,-8.25 3.589851,0 6.5,3.69365 6.5,8.25 z"
           transform="translate(-14.5,490.36218)" />
        <path
           transform="translate(-8.5,496.36218)"
           d="m 72,179.25 c 0,4.55635 -2.910149,8.25 -6.5,8.25 -3.589851,0 -6.5,-3.69365 -6.5,-8.25 0,-4.55635 2.910149,-8.25 6.5,-8.25 3.589851,0 6.5,3.69365 6.5,8.25 z"
           sodipodi:ry="8.25"
           sodipodi:rx="6.5"
           sodipodi:cy="179.25"
           sodipodi:cx="65.5"
           id="path3076"
           style="color:#000000;fill:#8a2be2;fill-opacity:1;fill-rule:nonzero;stroke:#000000;stroke-width:1;stroke-linecap:round;stroke-linejoin:round;stroke-miterlimit:4;stroke-opacity:1;stroke-dasharray:none;stroke-dashoffset:5;marker:none;visibility:visible;display:inline;overflow:visible;enable-background:accumulate"
           sodipodi:type="arc" />
        <path
           sodipodi:type="arc"
           style="color:#000000;fill:#8a2be2;fill-opacity:1;fill-rule:nonzero;stroke:#000000;stroke-width:1;stroke-linecap:round;stroke-linejoin:round;stroke-miterlimit:4;stroke-opacity:1;stroke-dasharray:none;stroke-dashoffset:5;marker:none;visibility:visible;display:inline;overflow:visible;enable-background:accumulate"
           id="path3078"
           sodipodi:cx="65.5"
           sodipodi:cy="179.25"
           sodipodi:rx="6.5"
           sodipodi:ry="8.25"
           d="m 72,179.25 c 0,4.55635 -2.910149,8.25 -6.5,8.25 -3.589851,0 -6.5,-3.69365 -6.5,-8.25 0,-4.55635 2.910149,-8.25 6.5,-8.25 3.589851,0 6.5,3.69365 6.5,8.25 z"
           transform="translate(1.5,494.36218)" />
        <path
           transform="translate(11.5,482.36218)"
           d="m 72,179.25 c 0,4.55635 -2.910149,8.25 -6.5,8.25 -3.589851,0 -6.5,-3.69365 -6.5,-8.25 0,-4.55635 2.910149,-8.25 6.5,-8.25 3.589851,0 6.5,3.69365 6.5,8.25 z"
           sodipodi:ry="8.25"
           sodipodi:rx="6.5"
           sodipodi:cy="179.25"
           sodipodi:cx="65.5"
           id="path3080"
           style="color:#000000;fill:#8a2be2;fill-opacity:1;fill-rule:nonzero;stroke:#000000;stroke-width:1;stroke-linecap:round;stroke-linejoin:round;stroke-miterlimit:4;stroke-opacity:1;stroke-dasharray:none;stroke-dashoffset:5;marker:none;visibility:visible;display:inline;overflow:visible;enable-background:accumulate"
           sodipodi:type="arc" />
        <path
           sodipodi:type="arc"
           style="color:#000000;fill:#8a2be2;fill-opacity:1;fill-rule:nonzero;stroke:#000000;stroke-width:1;stroke-linecap:round;stroke-linejoin:round;stroke-miterlimit:4;stroke-opacity:1;stroke-dasharray:none;stroke-dashoffset:5;marker:none;visibility:visible;display:inline;overflow:visible;enable-background:accumulate"
           id="path3082"
           sodipodi:cx="65.5"
           sodipodi:cy="179.25"
           sodipodi:rx="6.5"
           sodipodi:ry="8.25"
           d="m 72,179.25 c 0,4.55635 -2.910149,8.25 -6.5,8.25 -3.589851,0 -6.5,-3.69365 -6.5,-8.25 0,-4.55635 2.910149,-8.25 6.5,-8.25 3.589851,0 6.5,3.69365 6.5,8.25 z"
           transform="translate(15.5,446.36218)" />
        <path
           transform="translate(5.5,446.36218)"
           d="m 72,179.25 c 0,4.55635 -2.910149,8.25 -6.5,8.25 -3.589851,0 -6.5,-3.69365 -6.5,-8.25 0,-4.55635 2.910149,-8.25 6.5,-8.25 3.589851,0 6.5,3.69365 6.5,8.25 z"
           sodipodi:ry="8.25"
           sodipodi:rx="6.5"
           sodipodi:cy="179.25"
           sodipodi:cx="65.5"
           id="path3084"
           style="color:#000000;fill:#8a2be2;fill-opacity:1;fill-rule:nonzero;stroke:#000000;stroke-width:1;stroke-linecap:round;stroke-linejoin:round;stroke-miterlimit:4;stroke-opacity:1;stroke-dasharray:none;stroke-dashoffset:5;marker:none;visibility:visible;display:inline;overflow:visible;enable-background:accumulate"
           sodipodi:type="arc" />
        <path
           sodipodi:type="arc"
           style="color:#000000;fill:#8a2be2;fill-opacity:1;fill-rule:nonzero;stroke:#000000;stroke-width:1;stroke-linecap:round;stroke-linejoin:round;stroke-miterlimit:4;stroke-opacity:1;stroke-dasharray:none;stroke-dashoffset:5;marker:none;visibility:visible;display:inline;overflow:visible;enable-background:accumulate"
           id="path3086"
           sodipodi:cx="65.5"
           sodipodi:cy="179.25"
           sodipodi:rx="6.5"
           sodipodi:ry="8.25"
           d="m 72,179.25 c 0,4.55635 -2.910149,8.25 -6.5,8.25 -3.589851,0 -6.5,-3.69365 -6.5,-8.25 0,-4.55635 2.910149,-8.25 6.5,-8.25 3.589851,0 6.5,3.69365 6.5,8.25 z"
           transform="translate(5.5,446.36218)" />
        <path
           sodipodi:nodetypes="ccccczc"
           inkscape:connector-curvature="0"
           id="path3088"
           d="m 112.29997,57.486059 8.27903,9.761941 8.04151,-8.983284 9.12873,12.854476 11.77856,-6.735956 c 0,0 -13.58177,39.821314 -31.54116,34.871712 -17.95938,-4.949599 -5.68667,-41.768889 -5.68667,-41.768889 z"
           inkscape:transform-center-y="-1.1176416"
           inkscape:transform-center-x="-2.6638828"
           style="color:#000000;fill:#006400;fill-opacity:1;fill-rule:nonzero;stroke:#000000;stroke-width:1;stroke-linecap:round;stroke-linejoin:round;stroke-miterlimit:4;stroke-opacity:1;stroke-dashoffset:5;marker:none;visibility:visible;display:inline;overflow:visible;enable-background:accumulate"
           transform="translate(7.5,481.86218)" />
      </g>
      <use
         id="use3183"
         xlink:href="#g2989"
         inkscape:tiled-clone-of="#g2989"
         y="0"
         x="0"
         width="400"
         height="580" />
      <use
         id="use3185"
         transform="translate(0,161)"
         xlink:href="#g2989"
         inkscape:tiled-clone-of="#g2989"
         y="0"
         x="0"
         width="400"
         height="580" />
      <use
         id="use3187"
         transform="translate(0,322)"
         xlink:href="#g2989"
         inkscape:tiled-clone-of="#g2989"
         y="0"
         x="0"
         width="400"
         height="580" />
      <use
         id="use3189"
         transform="translate(101,0)"
         xlink:href="#g2989"
         inkscape:tiled-clone-of="#g2989"
         y="0"
         x="0"
         width="400"
         height="580" />
      <use
         id="use3191"
         transform="translate(101,161)"
         xlink:href="#g2989"
         inkscape:tiled-clone-of="#g2989"
         y="0"
         x="0"
         width="400"
         height="580" />
      <use
         id="use3193"
         transform="translate(101,322)"
         xlink:href="#g2989"
         inkscape:tiled-clone-of="#g2989"
         y="0"
         x="0"
         width="400"
         height="580" />
      <use
         id="use3195"
         transform="translate(202,0)"
         xlink:href="#g2989"
         inkscape:tiled-clone-of="#g2989"
         y="0"
         x="0"
         width="400"
         height="580" />
      <use
         id="use3197"
         transform="translate(202,161)"
         xlink:href="#g2989"
         inkscape:tiled-clone-of="#g2989"
         y="0"
         x="0"
         width="400"
         height="580" />
      <use
         id="use3199"
         transform="translate(202,322)"
         xlink:href="#g2989"
         inkscape:tiled-clone-of="#g2989"
         y="0"
         x="0"
         width="400"
         height="580" />
    </g>
    <path
       transform="translate(0.625,473.53152)"
       d="m 333.26613,288.83066 a 133.89113,222.17741 0 1 1 -267.782259,0 133.89113,222.17741 0 1 1 267.782259,0 z"
       sodipodi:ry="222.17741"
       sodipodi:rx="133.89113"
       sodipodi:cy="288.83066"
       sodipodi:cx="199.375"
       id="path3247"
       style="color:#000000;fill:none;stroke:#000000;stroke-width:3;stroke-linecap:round;stroke-linejoin:round;stroke-miterlimit:4;stroke-opacity:1;stroke-dasharray:none;stroke-dashoffset:5;marker:none;visibility:visible;display:inline;overflow:visible;enable-background:accumulate"
       sodipodi:type="arc" />
  </g>
</svg>
