<?xml version="1.0" encoding="UTF-8" standalone="no"?>
<!-- Created with Inkscape (http://www.inkscape.org/) -->

<svg
   width="500"
   height="500"
   id="svg2"
   version="1.1"
   inkscape:version="1.2.2 (732a01da63, 2022-12-09)"
   sodipodi:docname="northern-pacific-railway.svg"
   inkscape:export-xdpi="90"
   inkscape:export-ydpi="90"
   xmlns:inkscape="http://www.inkscape.org/namespaces/inkscape"
   xmlns:sodipodi="http://sodipodi.sourceforge.net/DTD/sodipodi-0.dtd"
   xmlns:xlink="http://www.w3.org/1999/xlink"
   xmlns="http://www.w3.org/2000/svg"
   xmlns:svg="http://www.w3.org/2000/svg"
   xmlns:rdf="http://www.w3.org/1999/02/22-rdf-syntax-ns#"
   xmlns:cc="http://creativecommons.org/ns#"
   xmlns:dc="http://purl.org/dc/elements/1.1/">
  <defs
     id="defs4" />
  <sodipodi:namedview
     id="base"
     pagecolor="#ffffff"
     bordercolor="#666666"
     borderopacity="1.0"
     inkscape:pageopacity="0.0"
     inkscape:pageshadow="2"
     inkscape:zoom="1.0332023"
     inkscape:cx="204.21944"
     inkscape:cy="245.83763"
     inkscape:document-units="px"
     inkscape:current-layer="layer1"
     showgrid="true"
     showguides="true"
     inkscape:guide-bbox="true"
     inkscape:snap-global="true"
     inkscape:window-width="1019"
     inkscape:window-height="719"
     inkscape:window-x="-4"
     inkscape:window-y="-4"
     inkscape:window-maximized="1"
     inkscape:showpageshadow="2"
     inkscape:pagecheckerboard="0"
     inkscape:deskcolor="#d1d1d1">
    <inkscape:grid
       type="xygrid"
       id="grid2996"
       empspacing="5"
       visible="true"
       enabled="true"
       snapvisiblegridlinesonly="true" />
  </sodipodi:namedview>
  <metadata
     id="metadata7">
    <rdf:RDF>
      <cc:Work
         rdf:about="">
        <dc:format>image/svg+xml</dc:format>
        <dc:type
           rdf:resource="http://purl.org/dc/dcmitype/StillImage" />
        <dc:title />
      </cc:Work>
    </rdf:RDF>
  </metadata>
  <g
     inkscape:label="レイヤー 1"
     inkscape:groupmode="layer"
     id="layer1"
     transform="translate(0,-552.36218)">
    <path
       id="path3026"
       style="fill:#000000"
       d="m 216.72279,649.72924 c -0.75168,-1.76786 -2.75163,-11.21656 -4.44434,-20.99711 -1.6927,-9.78055 -3.81113,-18.64088 -4.70761,-19.68962 -1.19436,-1.3972 -3.87155,-1.66057 -10.01764,-0.98547 -6.79455,0.74632 -8.5527,0.50371 -9.25668,-1.27737 -1.317,-3.33211 1.99308,-5.16703 16.13587,-8.94477 17.58111,-4.69616 30.16146,-5.89222 32.55267,-3.09489 3.16375,3.70105 0.53698,6.47466 -7.0973,7.49406 -3.94506,0.52679 -7.92027,1.83214 -8.83378,2.9008 -1.72888,2.0225 -0.62472,13.72381 3.17364,33.63267 0.98588,5.16749 1.3674,10.47107 0.84777,11.78571 -1.37996,3.49139 -6.74267,2.96233 -8.3526,-0.82401 z m 68.68821,2.76519 c -0.40819,-1.03272 0.33453,-6.88029 1.65046,-12.9946 2.87344,-13.35119 2.49656,-13.85325 -12.45592,-16.5924 -12.23766,-2.24183 -13.51416,-1.16508 -15.03844,12.68495 -1.20165,10.91863 -3.79119,15.26459 -8.13182,13.64745 -2.29543,-0.85519 -2.44961,-2.48774 -1.52272,-16.12392 0.56722,-8.34481 1.76453,-20.63667 2.66067,-27.31525 1.55357,-11.57816 1.80041,-12.14285 5.30792,-12.14285 3.24535,0 3.72476,0.67297 4.07076,5.71428 0.85877,12.51217 1.64135,13.05642 22.55603,15.68703 7.76348,0.97648 9.28009,-0.15918 10.74171,-8.04348 0.53158,-2.86748 1.91042,-5.97416 3.0641,-6.90374 3.06829,-2.47228 8.12453,-0.42754 8.12453,3.28557 0,6.03932 -9.23911,43.37722 -11.99484,48.47462 -1.57857,2.91993 -7.9508,3.35898 -9.03244,0.62234 z m 41.62728,19.06565 c -2.8325,-1.5847 -9.5356,-5.10309 -14.89579,-7.81863 -5.3602,-2.71554 -10.13686,-5.92674 -10.61481,-7.13599 -0.47797,-1.20925 1.33944,-6.86716 4.03867,-12.57314 2.69924,-5.70598 7.38759,-16.28093 10.41857,-23.49989 3.03098,-7.21896 6.59239,-13.53414 7.91426,-14.03373 2.80603,-1.06052 30.80685,12.38998 36.5492,17.55681 3.47945,3.13072 3.58886,3.57894 1.39391,5.70996 -2.19495,2.13103 -3.48669,1.77653 -16.45581,-4.51607 -11.58783,-5.62239 -14.46396,-6.51434 -16.28206,-5.0494 -3.74799,3.01996 -1.7237,7.34897 5.29101,11.31495 4.11395,2.32595 6.79948,4.92824 7.09162,6.87181 0.56368,3.75005 -1.40036,3.9429 -10.03448,0.98533 -9.97541,-3.41702 -11.57804,-2.9305 -14.98602,4.54942 -2.13364,4.68293 -2.62456,7.36372 -1.63512,8.92857 0.7777,1.22996 6.32544,4.80773 12.32829,7.95058 9.09142,4.75991 10.91428,6.31077 10.91428,9.28572 0,4.69493 -4.26104,5.26395 -11.03572,1.4737 z M 162.65505,639.21451 c 13.69354,-6.65228 17.30112,-12.10947 11.86233,-17.94422 -3.3434,-3.5868 -5.60156,-3.31169 -15.10297,1.83995 -13.52905,7.3354 -15.57699,10.28833 -11.83864,17.07005 2.05404,3.72621 5.93225,3.47782 15.07928,-0.96578 z m -4.19245,38.34999 c -2.60313,-1.74183 -10.08771,-13.14857 -17.56119,-26.76384 -3.88154,-7.07142 -7.67197,-13.62533 -8.42318,-14.56422 -3.5824,-4.47743 -0.38135,-7.82684 16.5172,-17.28273 18.7935,-10.51625 24.7477,-11.7383 31.94046,-6.55556 5.99108,4.31686 8.14376,11.68867 6.02078,20.61805 l -1.70553,7.17357 7.62214,7.49323 c 8.28145,8.14137 9.16047,10.30825 4.73487,11.67197 -3.7268,1.14839 -6.80768,-0.5563 -13.96492,-7.72693 -6.70926,-6.72183 -10.30949,-7.24714 -18.61358,-2.71591 -7.53164,4.10972 -8.22872,6.97699 -3.63588,14.95513 4.18015,7.26127 4.68013,10.49522 2.02166,13.07626 -2.03536,1.97608 -2.78684,2.0703 -4.95283,0.62098 z m -30.6202,18.57144 c 3.35598,-2.12941 7.89934,-11.18969 7.90467,-15.76336 0.0123,-10.485 -9.10987,-18.85763 -20.54568,-18.85763 -5.01189,0 -7.0245,0.83067 -10.3258,4.26179 -8.201075,8.52357 -6.930955,17.95081 3.63159,26.95472 4.14897,3.53675 6.60162,4.4931 11.47873,4.4759 3.41131,-0.0114 6.94673,-0.49417 7.85649,-1.07142 z m -22.33307,7.53748 c -7.845055,-3.83274 -12.563916,-9.64151 -15.462239,-19.03348 -3.308083,-10.71981 3.782464,-25.44794 14.950839,-31.05511 9.18836,-4.6131 25.72642,-1.62436 34.09995,6.16249 4.26984,3.97069 8.42612,14.96557 8.42612,22.29017 0,7.95708 -5.52292,16.35975 -13.77222,20.95327 -9.69574,5.39899 -18.16962,5.6038 -28.24245,0.68266 z m 292.58435,-28.00879 c 0.81287,-1.25339 1.07777,-3.82482 0.58865,-5.71428 -1.16779,-4.51127 -14.4791,-18.4354 -17.62402,-18.4354 -1.34869,0 -3.58887,1.68428 -4.97816,3.74284 -2.40488,3.5634 -2.38886,3.98881 0.33394,8.8735 3.25546,5.84027 14.66769,14.87175 17.98861,14.23593 1.21717,-0.23303 2.8781,-1.4492 3.69098,-2.70259 z m -28.46906,32.17935 c -1.61157,-1.88526 -1.17155,-3.70974 2.7627,-11.45562 2.57375,-5.06727 4.67954,-10.67773 4.67954,-12.46768 0,-1.89903 -2.38329,-5.51389 -5.72242,-8.67949 -6.39579,-6.06343 -8.87689,-5.80822 -14.81758,1.52416 -6.37638,7.87015 -13.30286,9.42463 -13.30286,2.98552 0,-2.9037 13.16549,-18.93727 28.27742,-34.43763 l 8.13545,-8.34457 4.6031,2.31103 c 6.61638,3.32181 21.23048,17.76254 24.16639,23.87972 6.11407,12.73903 0.0295,24.03608 -14.04944,26.08483 -7.37238,1.07283 -7.95758,1.59135 -15.86401,14.05641 -4.65278,7.33545 -5.92456,7.98699 -8.86829,4.54332 z m 22.31659,44.7424 c -3.28658,-8.52944 -3.20831,-9.18402 1.93985,-16.22613 2.8098,-3.84349 7.56981,-10.36333 10.57782,-14.48854 3.008,-4.1252 5.00298,-7.95292 4.43328,-8.50603 -0.56972,-0.55312 -6.62104,1.68363 -13.44741,4.97056 -12.37596,5.95907 -15.88761,6.38841 -17.56388,2.14737 -1.29726,-3.28213 2.65113,-6.77657 15.2178,-13.46826 6.1543,-3.27711 13.50711,-7.22787 16.33961,-8.77946 2.8325,-1.55158 7.73026,-4.13406 10.8839,-5.73884 l 5.73388,-2.91779 4.19827,4.56181 c 2.30903,2.50899 4.19824,5.13901 4.19824,5.84447 0,0.70547 -2.65824,4.39175 -5.90721,8.19175 -12.08356,14.13296 -23.52136,29.3623 -23.52136,31.3185 0,3.23855 4.79211,2.39385 20.91785,-3.6872 17.34596,-6.54117 21.13787,-6.99905 22.53631,-2.72127 1.2819,3.9213 -0.34546,5.32373 -9.83496,8.47562 -4.32806,1.43754 -14.81999,5.22911 -23.31542,8.42571 -17.86569,6.7224 -21.63588,7.14119 -23.38657,2.59773 z m -299.595787,4.68493 c -20.296992,-7.27832 -39.513839,-15.58679 -40.663298,-17.58093 -1.663454,-2.88584 0.721621,-9.02716 4.175007,-10.7502 1.45499,-0.72594 11.364259,-1.72917 22.020602,-2.22937 28.921216,-1.35755 29.625356,-2.1802 10.69739,-12.49786 -20.298443,-11.06471 -23.836149,-14.90751 -17.36559,-18.86324 1.887163,-1.1537 6.812551,0.92675 22.807142,9.63363 11.220104,6.10781 21.558934,12.10428 22.975184,13.32548 3.5739,3.08172 3.21574,8.42822 -0.82757,12.35374 -2.95083,2.86489 -5.44157,3.43483 -18.760725,4.29285 -18.107124,1.16645 -24.922427,2.17948 -24.922427,3.70445 0,0.61196 6.679529,3.84913 14.843398,7.1937 15.121234,6.19486 18.048904,8.65425 14.418534,12.1123 -1.72219,1.64045 -3.188205,1.53209 -9.397647,-0.69455 z m 55.540797,182.64961 c 2.64328,-3.45321 2.68948,-4.05778 0.60865,-7.9645 -2.94494,-5.52898 -13.49117,-14.72718 -16.88553,-14.72718 -1.46483,0 -4.52516,1.88672 -6.80074,4.19274 -5.60302,5.67796 -4.30086,9.91873 5.31046,17.29476 8.69232,6.67075 13.34156,6.98585 17.76716,1.20418 z m -11.79501,14.5073 c -5.57592,-1.31587 -14.20638,-6.83653 -20.22954,-12.94026 -5.11693,-5.18534 -7.13269,-5.28914 -13.34703,-0.6873 -5.632165,4.17073 -6.932179,4.3547 -9.504892,1.34506 -1.634173,-1.9117 -0.04791,-4.04637 11.223402,-15.10361 7.21961,-7.08247 16.30626,-15.48996 20.19256,-18.68329 8.33704,-6.85047 8.95444,-6.7293 22.82806,4.48017 10.53855,8.51482 13.5152,13.3231 13.50759,21.8193 -0.0118,13.50346 -11.66238,22.83966 -24.67015,19.76993 z m 231.41136,5.09714 c -6.03871,-2.56874 -13.77835,-10.41152 -17.06866,-17.29612 -6.51061,-13.62272 -0.81595,-30.69859 12.4761,-37.41046 9.2517,-4.67167 24.45685,-1.37627 24.45685,5.30053 0,2.52795 -1.0187,2.82421 -9.71143,2.82421 -9.08247,0 -10.03544,0.31457 -14.71428,4.85714 -3.91647,3.8024 -5.00287,6.02423 -5.00287,10.23163 0,7.92262 5.97205,16.86252 13.68663,20.4883 8.61226,4.04769 10.78813,3.80389 16.62481,-1.86278 4.67343,-4.53732 5.00285,-5.47469 5.00285,-14.23546 0,-7.68429 0.49486,-9.63543 2.7396,-10.80179 7.69027,-3.99584 12.18995,12.59609 6.39309,23.57365 -7.08751,13.42163 -22.31442,19.67744 -34.88269,14.33115 z m -16.59919,15.91816 c -10.35714,-14.85391 -24.03114,-38.46724 -23.58671,-40.73137 0.73348,-3.73653 6.03725,-3.76016 9.49907,-0.0423 1.67653,1.80055 7.32839,10.66656 12.55969,19.70228 5.23128,9.03571 10.4169,17.8228 11.52361,19.52685 1.66372,2.56172 1.6778,3.48947 0.0813,5.35715 -3.0856,3.60961 -5.55245,2.6763 -10.07693,-3.81258 z m -173.41082,-2.19251 c 0.3925,-0.6166 1.17925,-5.1166 1.74832,-10 1.21892,-10.46 0.18068,-11.01752 -8.33014,-4.47316 -6.98287,5.36946 -7.23128,8.66569 -0.94746,12.57274 5.2576,3.26899 6.4642,3.57353 7.52928,1.90042 z m -0.41597,26.26616 c -0.93928,-1.09879 -1.55661,-4.17672 -1.37188,-6.83986 0.46153,-6.65342 -0.45654,-7.66379 -12.1654,-13.38853 -10.45543,-5.11192 -11.43937,-5.12934 -16.97489,-0.30077 -1.77125,1.54505 -4.68907,2.55305 -6.62141,2.28748 -7.25106,-0.9966 -3.82099,-5.73553 17.0955,-23.6189 21.82479,-18.65994 25.07454,-20.19764 31.69157,-14.99555 3.18001,2.50001 3.22858,2.94522 1.67515,15.35714 -0.8799,7.03037 -2.29309,18.70876 -3.14043,25.95198 -0.84734,7.24323 -1.92971,14.15395 -2.40527,15.35711 -1.08094,2.73493 -5.51498,2.84303 -7.78294,0.1899 z m 105.82103,5.92643 c -0.77338,-1.7679 -3.44985,-13.75768 -5.94772,-26.64395 -3.73594,-19.27341 -4.1987,-23.73961 -2.60873,-25.17734 1.06306,-0.96127 8.22319,-3.20552 15.9114,-4.9872 7.68821,-1.78169 15.76659,-4.1126 17.95194,-5.1798 4.87107,-2.37876 9.47694,-2.49737 10.8882,-0.28043 1.51218,2.3755 -4.08186,6.29587 -13.05106,9.14637 -4.23292,1.34526 -10.88322,3.99557 -14.77843,5.88959 -5.65234,2.74841 -6.98918,4.07852 -6.62143,6.58818 0.6085,4.1526 4.74204,4.60604 16.14144,1.77072 8.0687,-2.0069 9.40489,-2.02642 11.32175,-0.16539 3.37659,3.27824 -0.0985,6.11666 -11.66444,9.52739 -5.51334,1.62584 -10.6747,3.717 -11.4697,4.64701 -0.95432,1.1164 -0.76574,5.4911 0.55503,12.87534 1.10026,6.15138 1.64303,12.08881 1.20617,13.19411 -1.23909,3.1349 -6.27472,2.3607 -7.83442,-1.2046 z m -23.36798,2.8571 c -1.31205,-3.4525 -3.55705,-29.27659 -3.74247,-43.04926 -0.0874,-6.49603 0.46572,-8.76303 2.43423,-9.97579 5.40223,-3.32824 6.86123,1.18584 8.74102,27.0444 0.97225,13.37424 1.33389,25.41445 0.80368,26.75585 -1.40492,3.5546 -6.78341,3.0483 -8.23646,-0.7752 z m -48.9688,1.2939 c -14.56418,-6.2837 -20.07687,-24.41614 -12.33278,-40.56518 7.34548,-15.3178 25.81002,-20.94977 38.77953,-11.82836 6.47581,4.55443 11.29271,11.86242 9.99049,15.15712 -1.44801,3.66353 -7.33578,2.29273 -10.05145,-2.3402 -1.41393,-2.41214 -4.97335,-5.32249 -8.02213,-6.55924 -14.62601,-5.93315 -26.81762,7.90085 -22.46978,25.49681 2.01959,8.1734 7.58094,12.54515 15.97031,12.55405 3.97777,0 6.15053,-1.196 10.56051,-5.83375 5.98595,-6.2951 10.59632,-7.02023 11.3681,-1.78803 0.52842,3.58233 -6.95978,12.47278 -13.10355,15.55728 -4.878,2.449 -15.1868,2.5235 -20.68925,0.1495 z"
       inkscape:connector-curvature="0" />
    <g
       id="g3905"
       transform="translate(0.79541016,-0.86633301)">
      <path
         transform="translate(-502,552.36218)"
         d="m 888.13301,250.86633 c 0,75.62348 -61.30494,136.92842 -136.92842,136.92842 -75.62348,0 -136.92842,-61.30494 -136.92842,-136.92842 0,-75.62348 61.30494,-136.92842 136.92842,-136.92842 75.62348,0 136.92842,61.30494 136.92842,136.92842 z"
         sodipodi:ry="136.92842"
         sodipodi:rx="136.92842"
         sodipodi:cy="250.86633"
         sodipodi:cx="751.20459"
         id="path3808"
         style="color:#000000;fill:#ff0000;stroke:#000000;stroke-width:10;stroke-miterlimit:4;stroke-opacity:1;stroke-dasharray:none;marker:none;visibility:visible;display:inline;overflow:visible;enable-background:accumulate"
         sodipodi:type="arc" />
      <path
         inkscape:connector-curvature="0"
         id="path3034"
         d="m 231.28571,939.99725 c -8.5776,-1.13524 -27.2596,-6.52116 -31.86737,-9.1872 -2.59848,-1.50347 -5.51764,-2.73358 -6.48703,-2.73358 -3.54591,0 -24.74897,-14.59516 -33.51947,-23.0732 -17.84427,-17.24922 -27.997,-34.87686 -38.95824,-67.64109 -2.94301,-8.79694 -3.32355,-12.49204 -3.16313,-30.71429 0.35986,-40.87462 11.80627,-70.05478 38.46426,-98.05634 5.1318,-5.39044 9.96986,-9.62416 10.75124,-9.40826 0.78137,0.21589 1.03439,-0.23251 0.56223,-0.99647 -0.47214,-0.76395 2.53364,-3.92509 6.67953,-7.02475 20.1965,-15.09982 53.97154,-26.32157 78.25227,-25.9993 11.15614,0.14807 18.18107,1.2263 37.85714,5.81056 10.12353,2.35865 31.45535,12.80198 40.71429,19.93234 14.12704,10.8793 29.55374,29.25781 37.07268,44.16634 11.6982,23.19511 17.62519,56.93568 14.49768,82.5309 -1.87113,15.31298 -9.62432,40.34761 -16.02915,51.75716 -5.82555,10.37764 -20.68443,29.43451 -28.35083,36.36065 -16.29134,14.71826 -40.18831,26.61576 -62.10255,30.9188 -13.23912,2.5996 -36.69245,4.37432 -44.37355,3.35773 z"
         style="fill:#000000" />
      <path
         inkscape:connector-curvature="0"
         id="path3024"
         d="m 233.8326,930.13004 c 0.24187,-0.73662 -4.35791,-3.80239 -10.22174,-6.81283 -23.40326,-12.01509 -37.28277,-35.49517 -35.60943,-60.24074 0.78611,-11.6251 1.49661,-14.27185 6.65367,-24.78608 9.51774,-19.40481 28.07141,-31.28651 52.87091,-33.85831 4.8964,-0.50777 11.95613,-1.78943 15.68828,-2.84813 3.73214,-1.0587 6.78571,-1.61418 6.78571,-1.2344 0,0.37979 3.9845,-2.0153 8.85444,-5.32243 21.64847,-14.70118 29.715,-28.5944 33.06607,-56.95065 0.79302,-6.71036 -4.01847,-25.15289 -8.19067,-31.39505 -12.56011,-18.79157 -35.41707,-31.4621 -56.75595,-31.4621 -9.37456,0 -32.24216,4.43659 -41.39076,8.0303 -21.62027,8.49278 -38.97164,22.5102 -56.5288,45.6672 -10.79786,14.24183 -14.16454,20.73667 -18.39565,35.48806 -5.76683,20.1055 -6.32698,25.95987 -4.81369,50.3093 l 1.40755,22.648 8.43309,17.14286 c 9.71026,19.7391 22.98506,37.2373 37.35271,49.23651 10.29816,8.60057 35.37963,21.80947 49.10452,25.86042 8.97905,2.65018 10.96353,2.73984 11.68974,0.52807 z"
         style="fill:#ff0000" />
    </g>
    <g
       inkscape:groupmode="layer"
       id="layer2"
       inkscape:label="Photograph"
       sodipodi:insensitive="true"
       style="display:none">
      <image
         y="552.36218"
         x="0"
         id="image2993"
         xlink:href="file:///D:/tools/tmp/NP_CarEnd_HighRes_Cropped2.png"
         height="500"
         width="500" />
    </g>
    <path
       sodipodi:type="arc"
       style="color:#000000;fill:none;stroke:#000000;stroke-width:10.20711994;stroke-linecap:round;stroke-linejoin:round;stroke-miterlimit:4;stroke-opacity:1;stroke-dasharray:none;stroke-dashoffset:5;marker:none;visibility:visible;display:inline;overflow:visible;enable-background:accumulate"
       id="path3038"
       sodipodi:cx="755"
       sodipodi:cy="255"
       sodipodi:rx="235"
       sodipodi:ry="235"
       d="m 990,255 a 235,235 0 1 1 -470,0 235,235 0 1 1 470,0 z"
       transform="matrix(0.95970399,0,0,1.0001295,-474.57651,547.32916)" />
  </g>
</svg>
