<?xml version="1.0" encoding="UTF-8" standalone="no"?>
<!-- Created with Inkscape (http://www.inkscape.org/) -->

<svg
   width="200"
   height="200"
   id="svg2"
   version="1.1"
   inkscape:version="1.2.2 (732a01da63, 2022-12-09)"
   sodipodi:docname="soup.svg"
   xmlns:inkscape="http://www.inkscape.org/namespaces/inkscape"
   xmlns:sodipodi="http://sodipodi.sourceforge.net/DTD/sodipodi-0.dtd"
   xmlns:xlink="http://www.w3.org/1999/xlink"
   xmlns="http://www.w3.org/2000/svg"
   xmlns:svg="http://www.w3.org/2000/svg"
   xmlns:rdf="http://www.w3.org/1999/02/22-rdf-syntax-ns#"
   xmlns:cc="http://creativecommons.org/ns#"
   xmlns:dc="http://purl.org/dc/elements/1.1/">
  <sodipodi:namedview
     id="base"
     pagecolor="#ffffff"
     bordercolor="#666666"
     borderopacity="1.0"
     inkscape:pageopacity="0.0"
     inkscape:pageshadow="2"
     inkscape:zoom="2.7352078"
     inkscape:cx="118.45535"
     inkscape:cy="84.819881"
     inkscape:document-units="px"
     inkscape:current-layer="layer1"
     showgrid="true"
     inkscape:window-width="1366"
     inkscape:window-height="697"
     inkscape:window-x="-4"
     inkscape:window-y="48"
     inkscape:window-maximized="1"
     inkscape:snap-grids="true"
     inkscape:showpageshadow="2"
     inkscape:pagecheckerboard="0"
     inkscape:deskcolor="#d1d1d1">
    <inkscape:grid
       spacingy="5"
       spacingx="5"
       snapvisiblegridlinesonly="true"
       enabled="true"
       visible="true"
       empspacing="5"
       id="grid2985"
       type="xygrid"
       originx="0"
       originy="0" />
  </sodipodi:namedview>
  <defs
     id="defs4">
    <linearGradient
       inkscape:collect="always"
       id="linearGradient3027">
      <stop
         style="stop-color:#000000;stop-opacity:1"
         offset="0"
         id="stop3029" />
      <stop
         id="stop3035"
         offset="0.6489675"
         style="stop-color:#ffffff;stop-opacity:1" />
      <stop
         style="stop-color:#999999;stop-opacity:1"
         offset="1"
         id="stop3031" />
    </linearGradient>
    <linearGradient
       id="linearGradient3017">
      <stop
         style="stop-color:#000000;stop-opacity:1"
         offset="0"
         id="stop3019" />
      <stop
         id="stop3025"
         offset="0.73880398"
         style="stop-color:#ffffff;stop-opacity:1" />
      <stop
         style="stop-color:#999999;stop-opacity:1"
         offset="1"
         id="stop3021" />
    </linearGradient>
    <linearGradient
       inkscape:collect="always"
       id="linearGradient3006">
      <stop
         style="stop-color:#999999;stop-opacity:1;"
         offset="0"
         id="stop3008" />
      <stop
         id="stop3015"
         offset="0.29249218"
         style="stop-color:#ffffff;stop-opacity:1" />
      <stop
         style="stop-color:#000000;stop-opacity:1"
         offset="1"
         id="stop3010" />
    </linearGradient>
    <linearGradient
       id="linearGradient3012">
      <stop
         id="stop3014"
         offset="0"
         style="stop-color:#808080;stop-opacity:1" />
      <stop
         style="stop-color:#ffffff;stop-opacity:1"
         offset="0.5"
         id="stop3020" />
      <stop
         id="stop3016"
         offset="1"
         style="stop-color:#808080;stop-opacity:1" />
    </linearGradient>
    <linearGradient
       gradientUnits="userSpaceOnUse"
       y2="115"
       x2="200"
       y1="115"
       x1="50"
       id="linearGradient3018"
       xlink:href="#linearGradient3012"
       inkscape:collect="always" />
    <filter
       id="filter3808"
       inkscape:collect="always"
       x="-0.028465773"
       y="-0.048957938"
       width="1.0569315"
       height="1.0979159">
      <feGaussianBlur
         id="feGaussianBlur3810"
         stdDeviation="1.7339317"
         inkscape:collect="always" />
    </filter>
    <linearGradient
       inkscape:collect="always"
       xlink:href="#linearGradient3027"
       id="linearGradient3033"
       x1="150"
       y1="30"
       x2="50"
       y2="30"
       gradientUnits="userSpaceOnUse" />
    <linearGradient
       inkscape:collect="always"
       xlink:href="#linearGradient3017"
       id="linearGradient3063"
       gradientUnits="userSpaceOnUse"
       x1="50"
       y1="30"
       x2="150"
       y2="30" />
    <linearGradient
       inkscape:collect="always"
       xlink:href="#linearGradient3006"
       id="linearGradient3065"
       gradientUnits="userSpaceOnUse"
       x1="50"
       y1="30"
       x2="150"
       y2="30" />
  </defs>
  <metadata
     id="metadata7">
    <rdf:RDF>
      <cc:Work
         rdf:about="">
        <dc:format>image/svg+xml</dc:format>
        <dc:type
           rdf:resource="http://purl.org/dc/dcmitype/StillImage" />
      </cc:Work>
    </rdf:RDF>
  </metadata>
  <g
     transform="translate(0,-852.36218)"
     id="layer1"
     inkscape:groupmode="layer"
     inkscape:label="レイヤー 1">
    <path
       sodipodi:type="arc"
       style="color:#000000;fill:url(#linearGradient3033);fill-opacity:1;fill-rule:nonzero;stroke:none;stroke-width:1;marker:none;visibility:visible;display:inline;overflow:visible;enable-background:accumulate"
       id="path2998"
       sodipodi:cx="100"
       sodipodi:cy="30"
       sodipodi:rx="50"
       sodipodi:ry="20"
       d="m 150,30 c 0,11.045695 -22.38576,20 -50,20 -27.614237,0 -50,-8.954305 -50,-20 0,-11.045695 22.385763,-20 50,-20 27.61424,0 50,8.954305 50,20 z"
       transform="matrix(1,0,0,1.025,0,847.11218)" />
    <path
       transform="translate(0,852.36218)"
       d="m 150,30 c 0,11.045695 -22.38576,20 -50,20 -27.614237,0 -50,-8.954305 -50,-20 0,-11.045695 22.385763,-20 50,-20 27.61424,0 50,8.954305 50,20 z"
       sodipodi:ry="20"
       sodipodi:rx="50"
       sodipodi:cy="30"
       sodipodi:cx="100"
       id="path2989"
       style="color:#000000;fill:#999999;fill-opacity:1;fill-rule:nonzero;stroke:none;stroke-width:1;stroke-linecap:round;stroke-linejoin:round;stroke-miterlimit:4;stroke-opacity:1;stroke-dasharray:none;stroke-dashoffset:5;marker:none;visibility:visible;display:inline;overflow:visible;enable-background:accumulate"
       sodipodi:type="arc" />
    <path
       sodipodi:nodetypes="cscsscc"
       inkscape:connector-curvature="0"
       d="m 147.98385,1019.5398 c 0,11.0456 -22.38576,20 -49.99998,20 -27.614237,0 -44.758065,-6.1318 -50,-17.9839 L 2.983871,974.53957 c -7.5738151,-7.91314 22.385762,-20 49.999999,-20 27.61424,0 49.99998,8.95431 49.99998,20 z"
       style="color:#000000;fill:#7f7f7f;fill-opacity:1;fill-rule:nonzero;stroke:none;stroke-width:1;marker:none;visibility:visible;display:inline;overflow:visible;filter:url(#filter3808);enable-background:accumulate"
       id="path3793" />
    <path
       sodipodi:nodetypes="csccscc"
       inkscape:connector-curvature="0"
       d="M 150,30 C 150,41.045695 127.61424,50 100,50 72.385763,50 50,41.045695 50,30 l 0,141.6129 C 56.451613,185.48117 72.385763,190 100,190 c 27.61424,0 46.37097,-4.51883 50,-17.98387 z"
       style="color:#000000;fill:url(#linearGradient3018);fill-opacity:1;fill-rule:nonzero;stroke:none;stroke-width:1;marker:none;visibility:visible;display:inline;overflow:visible;enable-background:accumulate"
       id="path2993"
       transform="translate(0,852.36218)" />
    <path
       sodipodi:nodetypes="ccsccsc"
       inkscape:connector-curvature="0"
       id="path3812"
       d="m 60,67 0,88 c 8.681897,5.30292 21.80895,10 40,10 17.3409,0 31.19767,-4.49591 40,-9.15625 L 140,67 c -9.12194,4.858401 -23.64061,8 -40,8 -16.35939,0 -30.878061,-3.141599 -40,-8 z"
       style="opacity:0.5;color:#000000;fill:#ff0000;fill-opacity:1;fill-rule:nonzero;stroke:none;stroke-width:1;marker:none;visibility:visible;display:inline;overflow:visible;enable-background:accumulate"
       transform="translate(0,852.36218)" />
    <path
       sodipodi:type="arc"
       style="color:#000000;fill:none;fill-opacity:1;fill-rule:nonzero;stroke:none;stroke-width:1;stroke-linecap:round;stroke-linejoin:round;stroke-miterlimit:4;stroke-opacity:1;stroke-dasharray:none;stroke-dashoffset:5;marker:none;visibility:visible;display:inline;overflow:visible;enable-background:accumulate"
       id="path3903"
       sodipodi:cx="100"
       sodipodi:cy="30"
       sodipodi:rx="50"
       sodipodi:ry="20"
       d="m 150,30 c 0,11.045695 -22.38576,20 -50,20 -27.614237,0 -50,-8.954305 -50,-20 0,-11.045695 22.385763,-20 50,-20 27.61424,0 50,8.954305 50,20 z"
       transform="translate(0,852.36218)" />
    <path
       sodipodi:type="arc"
       style="color:#000000;fill:none;fill-opacity:1;fill-rule:nonzero;stroke:none;stroke-width:1;stroke-linecap:round;stroke-linejoin:round;stroke-miterlimit:4;stroke-opacity:1;stroke-dasharray:none;stroke-dashoffset:5;marker:none;visibility:visible;display:inline;overflow:visible;enable-background:accumulate"
       id="path2997"
       sodipodi:cx="100"
       sodipodi:cy="30"
       sodipodi:rx="50"
       sodipodi:ry="20"
       d="m 150,30 c 0,11.045695 -22.38576,20 -50,20 -27.614237,0 -50,-8.954305 -50,-20 0,-11.045695 22.385763,-20 50,-20 27.61424,0 50,8.954305 50,20 z"
       transform="translate(0,852.36218)" />
    <path
       d="m 123.47969,1010.7778 c 0,0 3.84125,-0.6076 3.84125,-0.6076 0,0 0,-2.0964 0,-4.1926 0,-2.0963 0,-4.1926 0,-4.1926 0,0 1.23367,-0.1952 1.23367,-0.1952 1.4428,-0.222 2.57368,-0.4723 3.39263,-0.7493 0.81896,-0.2769 1.50122,-0.6422 2.04679,-1.09582 0.84932,-0.7039 1.51289,-1.6096 1.99073,-2.71718 0.47779,-1.10756 0.7208,-2.30481 0.72899,-3.59173 -0.004,-1.27742 -0.24768,-2.37541 -0.72899,-3.29396 -0.48135,-0.91854 -1.17296,-1.60238 -2.07484,-2.05156 -0.56427,-0.27937 -1.25122,-0.43305 -2.06081,-0.46103 -0.80961,-0.0278 -1.88908,0.0671 -3.23842,0.28475 0,0 -5.131,0.81172 -5.131,0.81172 0,0 0,2.34871 0,5.51312 0,1.68397 0,3.59895 0,5.51395 0,1.91434 0,3.82884 0,5.51254 0,3.1639 0,5.5125 0,5.5125 m 3.84125,-12.90193 c 0,0 0,-5.84875 0,-5.84875 0,0 1.28975,-0.20403 1.28975,-0.20403 0.61508,-0.0979 1.10224,-0.15883 1.46149,-0.18272 0.35924,-0.0238 0.68518,-0.0219 0.97782,0.006 0.56545,0.0827 1.00471,0.34028 1.31782,0.77253 0.31308,0.4323 0.47197,0.99528 0.47665,1.68893 -0.002,0.53998 -0.11043,1.02955 -0.32594,1.46898 -0.21556,0.43946 -0.52748,0.81207 -0.93578,1.11783 -0.29559,0.21155 -0.70681,0.40218 -1.2337,0.57191 -0.52688,0.16978 -1.16242,0.31385 -1.90659,0.43218 0,0 -1.12152,0.17742 -1.12152,0.17742 m -22.02447,-7.72218 c 0,0 0,2.09119 0,4.65514 0,1.4979 0,3.15716 0,4.65507 0,2.56392 0,4.65522 0,4.65522 -0.002,1.1638 0.0882,2.1555 0.27186,2.9754 0.18364,0.8199 0.47461,1.5573 0.87289,2.2122 0.63376,1.022 1.47471,1.7923 2.52468,2.3345 1.04996,0.5426 2.19697,0.7875 3.43943,0.7201 1.15529,-0.085 2.23181,-0.4034 3.22657,-0.9925 0.99474,-0.5889 1.81227,-1.3574 2.45263,-2.3052 0.50561,-0.7483 0.8654,-1.6059 1.0864,-2.5287 0.22099,-0.9228 0.32913,-2.018 0.32444,-3.2857 0,0 0,-2.0911 0,-4.655 0,-1.49792 0,-3.15718 0,-4.65511 0,-2.56395 0,-4.65514 0,-4.65514 0,0 -3.87764,0.40339 -3.87764,0.40339 0,0 0,2.09117 0,4.65512 0,1.49791 0,3.15719 0,4.65509 0,2.56395 0,4.65515 0,4.65515 0.003,0.7996 -0.0319,1.426 -0.10638,1.8787 -0.0745,0.4526 -0.20913,0.8567 -0.40405,1.2123 -0.27765,0.4929 -0.65121,0.89 -1.1221,1.1811 -0.47089,0.2911 -0.98804,0.4562 -1.55145,0.4957 -0.57705,0.03 -1.1025,-0.072 -1.57635,-0.3009 -0.47387,-0.2321 -0.8523,-0.5963 -1.13128,-1.054 -0.19633,-0.331 -0.33196,-0.7182 -0.40691,-1.1614 -0.0749,-0.4434 -0.11068,-1.0651 -0.10709,-1.8653 0,0 0,-2.0911 0,-4.65521 0,-1.4979 0,-3.15718 0,-4.65509 0,-2.56396 0,-4.65516 0,-4.65516 0,0 -3.91571,0.0802 -3.91571,0.0802 m -13.98446,-0.98436 c -1.56763,-0.09 -2.997963,-4e-4 -4.293854,0.37927 -1.37143,0.40178 -2.587648,1.02052 -3.654444,1.96741 -1.061736,0.94239 -1.857776,2.03062 -2.393733,3.33607 -0.511412,1.24565 -0.784545,2.67032 -0.8194,4.274 0.03706,1.60307 0.314967,3.11077 0.833735,4.52327 0.538908,1.4673 1.336159,2.852 2.397284,4.0837 1.066206,1.2376 2.274462,2.2614 3.63051,2.9614 1.292672,0.6673 2.715456,1.1378 4.271221,1.3006 1.536531,0.087 2.939827,-0.058 4.209892,-0.5141 1.33624,-0.4804 2.525001,-1.2378 3.566289,-2.273 1.04225,-1.0358 1.82497,-2.2905 2.3504,-3.6767 0.49842,-1.3149 0.76466,-2.7743 0.79867,-4.3781 -0.0373,-1.58567 -0.31124,-3.04652 -0.82208,-4.3824 -0.53017,-1.38636 -1.31465,-2.61 -2.355669,-3.75642 -1.041044,-1.14643 -2.21923,-2.03253 -3.534564,-2.6583 -1.267414,-0.603 -2.662165,-1.02468 -4.184257,-1.1867 0,0 0,0 0,0 m -0.05736,3.93436 c 2.010653,0.20966 3.668184,1.06843 4.972594,2.53541 1.304377,1.46703 1.979579,3.28532 2.025603,5.45495 -0.04068,2.1612 -0.705091,3.8946 -1.993337,5.1998 -1.288277,1.3053 -2.956563,1.8795 -5.00486,1.7599 -2.055493,-0.2145 -3.750806,-1.1518 -5.086327,-2.7266 -1.335534,-1.5749 -2.027147,-3.435 -2.074839,-5.57991 0.04412,-2.173 0.728573,-3.86129 2.053376,-5.06493 1.32479,-1.20361 3.027201,-1.70005 5.10779,-1.57862 0,0 0,0 0,0 m -26.25459,7.16186 c 0.06484,0.8701 0.201524,1.6469 0.410059,2.3311 0.208534,0.6843 0.520461,1.3705 0.935778,2.0588 0.630859,1.0394 1.419193,1.9491 2.378417,2.6601 0.959215,0.7111 1.996018,1.2128 3.110413,1.5048 1.919017,0.4489 3.51458,0.073 4.764174,-0.9958 1.249573,-1.0695 1.89601,-2.6222 1.939318,-4.6579 -0.0018,-0.9135 -0.161921,-1.7889 -0.480381,-2.6262 -0.318488,-0.83729 -0.784637,-1.6157 -1.398443,-2.33524 -0.381353,-0.45971 -0.822811,-0.86818 -1.319585,-1.26111 -0.496796,-0.39292 -1.239905,-0.8936 -2.229329,-1.50199 -0.947504,-0.58276 -1.546131,-0.96609 -1.797684,-1.13895 -0.251567,-0.17287 -0.425543,-0.30711 -0.521929,-0.4028 -0.381461,-0.35297 -0.669461,-0.72293 -0.864004,-1.10992 -0.194552,-0.38698 -0.292121,-0.7826 -0.292702,-1.18685 0.01009,-0.66509 0.208648,-1.15113 0.595986,-1.45812 0.387327,-0.30696 0.903377,-0.38313 1.548153,-0.22855 0.652403,0.17151 1.172679,0.47234 1.551922,0.9569 0.379226,0.48457 0.598967,1.10851 0.659228,1.87182 0,0 4.036361,0.83195 4.036361,0.83195 -0.03856,-0.83247 -0.160736,-1.57864 -0.366516,-2.23857 -0.205805,-0.6599 -0.520126,-1.30179 -0.942969,-1.92566 -0.580621,-0.86408 -1.297964,-1.58523 -2.149164,-2.18486 -0.851219,-0.5996 -1.776166,-0.9851 -2.76065,-1.24327 -1.721548,-0.39982 -3.15389,-0.15074 -4.286514,0.69313 -1.132632,0.84388 -1.720268,2.1539 -1.762907,3.93006 0.0065,1.39693 0.379098,2.71379 1.118026,3.95062 0.738921,1.23685 1.807457,2.3278 3.21044,3.24811 1.331852,0.86471 2.203827,1.43363 2.613787,1.72003 0.409942,0.28638 0.745464,0.57077 1.006564,0.85337 0.313068,0.341 0.551712,0.7192 0.715939,1.1349 0.164206,0.4155 0.246906,0.8557 0.248097,1.3205 -0.01361,0.8007 -0.277052,1.3865 -0.790367,1.7577 -0.513333,0.3711 -1.199078,0.4924 -2.044853,0.2879 -0.859898,-0.2199 -1.524063,-0.6171 -1.992499,-1.1912 -0.468448,-0.5744 -0.744694,-1.3343 -0.828738,-2.2797 0,0 -4.01343,-1.1451 -4.01343,-1.1451 m 41.14985,-17.90447 c 0,0 4.31358,-0.11787 4.31358,-0.11787 0,0 2.3353,-5.83532 2.3353,-5.83532 0,0 1.8711,-0.12123 3.73537,-0.29436 1.86427,-0.17307 3.71791,-0.41266 3.71791,-0.41266 0,0 2.22352,5.39396 2.22352,5.39396 0,0 4.23377,-0.66977 4.23377,-0.66977 0,0 -0.92574,-2.20225 -2.173,-5.16939 -0.66375,-1.57896 -1.41853,-3.37453 -2.1733,-5.17008 -0.75461,-1.79512 -1.51401,-3.61562 -2.1817,-5.21594 -1.2549,-3.00768 -2.18695,-5.24429 -2.18695,-5.24429 0,0 -3.06225,0.28429 -3.06225,0.28429 0,0 -0.93218,2.41948 -2.19034,5.66231 -0.66956,1.72571 -1.42935,3.70333 -2.19306,5.64334 -0.76354,1.93956 -1.52707,3.8791 -2.1985,5.58467 -1.26192,3.20555 -2.20035,5.56109 -2.20035,5.56109 m 8.07224,-9.95099 c 0,0 0.56116,-1.71417 1.12114,-3.43724 0.55999,-1.72305 1.11998,-3.44609 1.11998,-3.44609 0,0 0.56,1.61906 1.12,3.23814 0.55997,1.61909 1.11712,3.22033 1.11712,3.22033 0,0 -4.47824,0.42486 -4.47824,0.42486 m -21.213988,9.49396 c 0,0 2.846604,0.20449 5.693208,0.35328 2.84662,0.14892 5.68742,0.11078 5.68742,0.11078 0,0 0,-3.90911 0,-3.90911 0,0 -1.86098,-0.007 -3.72392,-0.0528 -1.862921,-0.0453 -3.727389,-0.15019 -3.727389,-0.15019 0,0 0,-5.13257 0,-5.13257 0,0 1.785654,0.10315 3.569749,0.14635 1.78413,0.0434 3.56677,0.0579 3.56677,0.0579 0,0 0,-3.90912 0,-3.90912 0,0 -1.78264,-0.0147 -3.56677,-0.0579 -1.784095,-0.0435 -3.569749,-0.14635 -3.569749,-0.14635 0,0 0,-5.19226 0,-5.19226 0,0 1.864468,0.10498 3.727389,0.1502 1.86294,0.0453 3.72392,0.0528 3.72392,0.0528 0,0 0,-3.90911 0,-3.90911 0,0 -2.8408,0.0381 -5.68742,-0.11079 -2.846604,-0.14889 -5.693208,-0.35327 -5.693208,-0.35327 0,0 0,2.34871 0,5.51313 0,1.68397 0,3.59896 0,5.51391 0,1.91451 0,3.82898 0,5.51253 0,3.16413 0,5.51258 0,5.51258 m -16.032159,-2.19879 c 0,0 3.905117,0.71137 3.905117,0.71137 0,0 0,-2.09631 0,-4.1926 0,-2.09629 0,-4.19259 0,-4.19259 0,0 1.256398,0.2077 1.256398,0.2077 1.469358,0.24911 2.624935,0.3187 3.460843,0.28546 0.835888,-0.0332 1.53255,-0.20088 2.090245,-0.50795 0.868158,-0.47551 1.546454,-1.20283 2.034889,-2.18198 0.488406,-0.97912 0.736796,-2.11104 0.745171,-3.39577 -0.0048,-1.27867 -0.253182,-2.44199 -0.745171,-3.48992 -0.492018,-1.04793 -1.198975,-1.91766 -2.12087,-2.6093 -0.576804,-0.43103 -1.278082,-0.7867 -2.104429,-1.05556 -0.826368,-0.26883 -1.929391,-0.47967 -3.30357,-0.70252 0,0 -5.218623,-0.92848 -5.218623,-0.92848 0,0 0,2.34871 0,5.51313 0,1.68397 0,3.59896 0,5.51391 0,1.91451 0,3.82898 0,5.51253 0,3.16414 0,5.51257 0,5.51257 m 3.905117,-11.58294 c 0,0 0,-5.84874 0,-5.84874 0,0 1.313506,0.21713 1.313506,0.21713 0.626407,0.10295 1.123192,0.19292 1.489874,0.27587 0.366665,0.083 0.699354,0.1819 0.998069,0.29664 0.577131,0.25101 1.025487,0.63923 1.345068,1.16465 0.319562,0.52543 0.481733,1.13568 0.486515,1.83073 -0.0018,0.53938 -0.112696,0.99672 -0.332689,1.37201 -0.220016,0.37532 -0.538395,0.65513 -0.955142,0.83942 -0.301698,0.1236 -0.721435,0.19184 -1.259214,0.20483 -0.537798,0.0129 -1.185931,-0.039 -1.943807,-0.1637 0,0 -1.14218,-0.18883 -1.14218,-0.18883 m 43.88064,-17.23006 c 0,0 3.84126,-0.60765 3.84126,-0.60765 0,0 0,-2.71675 0,-6.04768 0,-1.94599 0,-4.10165 0,-6.04764 0,-3.33097 0,-6.04773 0,-6.04773 0,0 3.84124,-0.60767 3.84124,-0.60767 0,0 0,-3.90911 0,-3.90911 0,0 -2.88093,0.45576 -5.76188,0.91151 -2.88091,0.45576 -5.76625,0.88829 -5.76625,0.88829 0,0 0,3.90912 0,3.90912 0,0 3.84563,-0.58448 3.84563,-0.58448 0,0 0,2.71675 0,6.04768 0,1.946 0,4.10165 0,6.04764 0,3.33096 0,6.04772 0,6.04772 m -10.02134,1.24643 c 0,0 3.88203,-0.37601 3.88203,-0.37601 0,0 0,-2.34871 0,-5.51313 0,-1.68398 0,-3.59896 0,-5.5139 0,-1.91451 0,-3.82899 0,-5.51254 0,-3.16412 0,-5.51257 0,-5.51257 0,0 -3.88203,0.376 -3.88203,0.376 0,0 0,2.34871 0,5.51314 0,1.68397 0,3.59896 0,5.5139 0,1.91451 0,3.82899 0,5.51253 0,3.16415 0,5.51258 0,5.51258 m -12.5474,0.37279 c 0,0 2.60328,0.0767 5.19459,-0.008 2.59132,-0.0851 5.17721,-0.22211 5.17721,-0.22211 0,0 0,-3.90912 0,-3.90912 0,0 -1.6079,0.10498 -3.22123,0.15794 -1.61333,0.0529 -3.22857,0.0812 -3.22857,0.0812 0,0 0,-2.71675 0,-6.04768 0,-1.946 0,-4.10165 0,-6.04765 0,-3.33095 0,-6.04771 0,-6.04771 0,0 -3.922,-0.008 -3.922,-0.008 0,0 0,2.34872 0,5.51313 0,1.68399 0,3.59897 0,5.51391 0,1.91451 0,3.829 0,5.51254 0,3.16413 0,5.51258 0,5.51258 m -16.070411,-1.15898 c 0,0 3.925279,0.44789 3.925279,0.44789 0,0 0,-2.0963 0,-4.1926 0,-2.09628 0,-4.19259 0,-4.19259 0,0 1.26133,0.12596 1.26133,0.12596 1.475878,0.12452 2.632683,0.14581 3.470421,0.0656 0.83772,-0.0803 1.535627,-0.31822 2.093728,-0.65644 0.868786,-0.52401 1.547574,-1.28922 2.036363,-2.29565 0.488757,-1.00641 0.736906,-2.16846 0.745276,-3.4539 -0.0042,-1.27826 -0.252929,-2.41134 -0.745276,-3.43181 -0.492379,-1.0204 -1.199845,-1.85067 -2.12241,-2.49079 -0.577219,-0.39883 -1.279906,-0.68381 -2.108062,-0.90628 -0.828179,-0.22242 -1.932403,-0.38679 -3.312674,-0.49314 0,0 -5.243973,-0.57844 -5.243973,-0.57844 0,0 0,2.34871 0,5.51312 0,1.68397 0,3.59897 0,5.51391 0,1.91451 0,3.82898 0,5.51254 0,3.16413 0,5.51257 0,5.51257 M 90.04783,939.5073 c 0,0 0,-5.84875 0,-5.84875 0,0 1.318694,0.13051 1.318694,0.13051 0.629185,0.0504 1.12752,0.10597 1.495005,0.16842 0.367467,0.0624 0.700886,0.14267 1.000256,0.2406 0.578393,0.21859 1.027731,0.58471 1.348012,1.08326 0.320262,0.49857 0.482789,1.09518 0.487582,1.78982 -0.0018,0.53953 -0.112948,1.0062 -0.333419,1.39998 -0.220497,0.39381 -0.539575,0.69549 -0.957234,0.90319 -0.302357,0.14051 -0.723014,0.23239 -1.261971,0.27556 -0.538976,0.0431 -1.18908,0.0346 -1.950318,-0.0258 0,0 -1.146607,-0.11675 -1.146607,-0.11675 m -20.247199,2.4242 c 0.06525,0.86785 0.202775,1.64053 0.412606,2.31804 0.209829,0.67749 0.523691,1.35379 0.941586,2.02883 0.634778,1.01931 1.435374,1.86246 2.399412,2.54407 0.964031,0.68162 2.006342,1.14915 3.130796,1.37379 1.936342,0.33249 3.532406,-0.0653 4.785842,-1.17106 1.253411,-1.1058 1.902609,-2.68696 1.946147,-4.7251 -0.0018,-0.91347 -0.163288,-1.77325 -0.482729,-2.60129 -0.319466,-0.82805 -0.787046,-1.59292 -1.402741,-2.29462 -0.382521,-0.44867 -0.823927,-0.85485 -1.324215,-1.21855 -0.500309,-0.3637 -1.247916,-0.82778 -2.241287,-1.40677 -0.951282,-0.55459 -1.553833,-0.91069 -1.807658,-1.06832 -0.253837,-0.15763 -0.429383,-0.28135 -0.526641,-0.37118 -0.384905,-0.32986 -0.673409,-0.69801 -0.868927,-1.07903 -0.195529,-0.38101 -0.293587,-0.77362 -0.294171,-1.17786 0.01009,-0.6654 0.209695,-1.15753 0.598977,-1.4764 0.38927,-0.31886 0.909872,-0.42549 1.560469,-0.30995 0.658292,0.132 1.177816,0.43463 1.558571,0.90792 0.380737,0.4733 0.601354,1.09071 0.661857,1.8522 0,0 4.053642,0.68067 4.053642,0.68067 -0.03868,-0.83135 -0.161228,-1.57399 -0.367642,-2.22795 -0.206436,-0.65392 -0.521725,-1.28668 -0.945867,-1.8983 -0.582404,-0.84724 -1.302214,-1.54563 -2.159435,-2.09517 -0.85724,-0.5495 -1.779289,-0.95427 -2.772659,-1.15279 -1.737088,-0.29552 -3.17263,-0.0281 -4.318006,0.88683 -1.145383,0.91502 -1.733289,2.22313 -1.776193,4.00067 0.0065,1.39672 0.381452,2.70168 1.124969,3.91491 0.743507,1.21324 1.824954,2.22984 3.234979,3.10707 1.338536,0.82382 2.219366,1.32979 2.630961,1.60395 0.411576,0.27415 0.748435,0.54866 1.01058,0.82352 0.314313,0.33168 0.553638,0.70543 0.719028,1.11137 0.165367,0.40593 0.248651,0.84121 0.249853,1.30579 -0.0137,0.80156 -0.279158,1.40438 -0.794521,1.79076 -0.51538,0.38635 -1.199774,0.50295 -2.053183,0.34974 -0.86766,-0.16777 -1.536482,-0.53461 -2.007271,-1.09451 -0.4708,-0.55992 -0.74843,-1.31129 -0.832898,-2.25413 0,0 -4.044234,-0.97715 -4.044234,-0.97715"
       style="font-size:24px;font-style:normal;font-variant:normal;font-weight:bold;font-stretch:normal;text-align:center;line-height:100%;letter-spacing:0px;word-spacing:0px;writing-mode:lr-tb;text-anchor:middle;fill:#3f7f00;fill-opacity:1;stroke:none;font-family:URWGothicLDem;-inkscape-font-specification:Sans Bold"
       id="path3854"
       inkscape:connector-curvature="0" />
    <g
       id="g3037"
       transform="matrix(1.125,0,0,1.09375,-147.5,-189.59645)">
      <path
         sodipodi:type="arc"
         style="color:#000000;fill:url(#linearGradient3063);fill-opacity:1;fill-rule:nonzero;stroke:none;stroke-width:1;marker:none;visibility:visible;display:inline;overflow:visible;enable-background:accumulate"
         id="path3000"
         sodipodi:cx="100"
         sodipodi:cy="30"
         sodipodi:rx="50"
         sodipodi:ry="20"
         d="m 150,30 c 0,11.045695 -22.38576,20 -50,20 -27.614237,0 -50,-8.954305 -50,-20 0,-11.045695 22.385763,-20 50,-20 27.61424,0 50,8.954305 50,20 z"
         transform="matrix(0.8,0,0,0.8,140,958.36218)" />
      <path
         transform="matrix(0.7,0,0,0.7,150,961.36218)"
         d="m 150,30 c 0,11.045695 -22.38576,20 -50,20 -27.614237,0 -50,-8.954305 -50,-20 0,-11.045695 22.385763,-20 50,-20 27.61424,0 50,8.954305 50,20 z"
         sodipodi:ry="20"
         sodipodi:rx="50"
         sodipodi:cy="30"
         sodipodi:cx="100"
         id="path3002"
         style="color:#000000;fill:url(#linearGradient3065);fill-opacity:1;fill-rule:nonzero;stroke:none;stroke-width:1;marker:none;visibility:visible;display:inline;overflow:visible;enable-background:accumulate"
         sodipodi:type="arc" />
      <path
         sodipodi:type="arc"
         style="color:#000000;fill:#999999;fill-opacity:1;fill-rule:nonzero;stroke:none;stroke-width:1;marker:none;visibility:visible;display:inline;overflow:visible;enable-background:accumulate"
         id="path3004"
         sodipodi:cx="100"
         sodipodi:cy="30"
         sodipodi:rx="50"
         sodipodi:ry="20"
         d="m 150,30 c 0,11.045695 -22.38576,20 -50,20 -27.614237,0 -50,-8.954305 -50,-20 0,-11.045695 22.385763,-20 50,-20 27.61424,0 50,8.954305 50,20 z"
         transform="matrix(0.6,0,0,0.6,160,964.36218)" />
    </g>
  </g>
</svg>
